<svg version="1.1" viewBox="0.0 0.0 960.0 720.0" fill="none" stroke="none" stroke-linecap="square" stroke-miterlimit="10" xmlns:xlink="http://www.w3.org/1999/xlink" xmlns="http://www.w3.org/2000/svg"><clipPath id="p2.0"><path d="m0 0l960.0 0l0 720.0l-960.0 0l0 -720.0z" clip-rule="nonzero"/></clipPath><g clip-path="url(#p2.0)"><path fill="#ffffff" d="m0 0l960.0 0l0 720.0l-960.0 0z" fill-rule="evenodd"/><path fill="#4f81bd" d="m323.1605 87.51348l0 0c0 -9.622414 7.8005066 -17.42292 17.422913 -17.42292l259.83133 0c4.6208496 0 9.052429 1.8356247 12.319885 5.10305c3.267395 3.2674332 5.1030273 7.6990204 5.1030273 12.31987l0 69.6896c0 9.622406 -7.800476 17.422913 -17.422913 17.422913l-259.83133 0c-9.622406 0 -17.422913 -7.8005066 -17.422913 -17.422913z" fill-rule="evenodd"/><path stroke="#395e89" stroke-width="2.6666666666666665" stroke-linejoin="round" stroke-linecap="butt" d="m323.1605 87.51348l0 0c0 -9.622414 7.8005066 -17.42292 17.422913 -17.42292l259.83133 0c4.6208496 0 9.052429 1.8356247 12.319885 5.10305c3.267395 3.2674332 5.1030273 7.6990204 5.1030273 12.31987l0 69.6896c0 9.622406 -7.800476 17.422913 -17.422913 17.422913l-259.83133 0c-9.622406 0 -17.422913 -7.8005066 -17.422913 -17.422913z" fill-rule="evenodd"/><path fill="#ffffff" d="m367.3272 113.71078l13.515625 0l0 17.187508l-2.28125 0l0 -15.156258l-8.953125 0l0 15.156258l-2.28125 0l0 -17.187508zm16.953125 21.953133l0 -17.218758l1.921875 0l0 1.625q0.6875 -0.953125 1.53125 -1.421875q0.859375 -0.484375 2.078125 -0.484375q1.59375 0 2.8125 0.828125q1.21875 0.8125 1.84375 2.3125q0.625 1.5 0.625 3.28125q0 1.90625 -0.6875 3.4375076q-0.6875 1.53125 -2.0 2.34375q-1.296875 0.8125 -2.734375 0.8125q-1.0625 0 -1.90625 -0.4375q-0.828125 -0.453125 -1.375 -1.140625l0 6.0625l-2.109375 0zm1.921875 -10.921883q0 2.40625 0.96875 3.5625076q0.96875 1.140625 2.359375 1.140625q1.40625 0 2.40625 -1.1875q1.0 -1.1875076 1.0 -3.6875076q0 -2.375 -0.984375 -3.5625q-0.96875 -1.1875 -2.328125 -1.1875q-1.359375 0 -2.390625 1.265625q-1.03125 1.25 -1.03125 3.65625zm11.425781 -6.296875l2.109375 0l0 9.5l5.859375 -9.5l2.265625 0l0 12.453133l-2.109375 0l0 -9.437508l-5.84375 9.437508l-2.28125 0l0 -12.453133zm13.421875 0l7.15625 0l0 1.75l-5.046875 0l0 10.703133l-2.109375 0l0 -12.453133zm7.4296875 6.234375q0 -3.46875 1.921875 -5.125q1.609375 -1.390625 3.921875 -1.390625q2.5625 0 4.1875 1.6875q1.625 1.6875 1.625 4.640625q0 2.40625 -0.71875 3.7812576q-0.71875 1.375 -2.09375 2.140625q-1.375 0.765625 -3.0 0.765625q-2.625 0 -4.234375 -1.671875q-1.609375 -1.6875076 -1.609375 -4.8281326zm2.171875 0q0 2.390625 1.03125 3.5781326q1.046875 1.1875 2.640625 1.1875q1.5625 0 2.609375 -1.1875q1.046875 -1.2031326 1.046875 -3.6562576q0 -2.3125 -1.0625 -3.5q-1.046875 -1.1875 -2.59375 -1.1875q-1.59375 0 -2.640625 1.1875q-1.03125 1.1875 -1.03125 3.578125zm10.3046875 -6.234375l10.109375 0l0 1.75l-4.015625 0l0 10.703133l-2.09375 0l0 -10.703133l-4.0 0l0 -1.75zm11.066406 6.234375q0 -3.46875 1.921875 -5.125q1.609375 -1.390625 3.921875 -1.390625q2.5625 0 4.1875 1.6875q1.625 1.6875 1.625 4.640625q0 2.40625 -0.71875 3.7812576q-0.71875 1.375 -2.09375 2.140625q-1.375 0.765625 -3.0 0.765625q-2.625 0 -4.234375 -1.671875q-1.609375 -1.6875076 -1.609375 -4.8281326zm2.171875 0q0 2.390625 1.03125 3.5781326q1.046875 1.1875 2.640625 1.1875q1.5625 0 2.609375 -1.1875q1.046875 -1.2031326 1.046875 -3.6562576q0 -2.3125 -1.0625 -3.5q-1.046875 -1.1875 -2.59375 -1.1875q-1.59375 0 -2.640625 1.1875q-1.03125 1.1875 -1.03125 3.578125zm11.972656 -6.234375l4.859375 0q1.796875 0 2.671875 0.3125q0.875 0.296875 1.5 1.09375q0.625 0.796875 0.625 1.90625q0 0.890625 -0.375 1.5625q-0.359375 0.65625 -1.09375 1.09375q0.875 0.296875 1.453125 1.109375q0.578125 0.796875 0.578125 1.890625q-0.109375 1.7656326 -1.265625 2.6250076q-1.140625 0.859375 -3.34375 0.859375l-5.609375 0l0 -12.453133zm2.109375 5.25l2.25 0q1.34375 0 1.84375 -0.140625q0.515625 -0.140625 0.90625 -0.5625q0.40625 -0.4375 0.40625 -1.03125q0 -0.984375 -0.703125 -1.375q-0.6875 -0.390625 -2.375 -0.390625l-2.328125 0l0 3.5zm0 5.4687576l2.78125 0q1.796875 0 2.453125 -0.40625q0.671875 -0.421875 0.703125 -1.4531326q0 -0.59375 -0.390625 -1.09375q-0.375 -0.515625 -1.0 -0.640625q-0.625 -0.140625 -1.984375 -0.140625l-2.5625 0l0 3.7343826zm10.625 -10.718758l2.109375 0l0 9.5l5.859375 -9.5l2.265625 0l0 12.453133l-2.109375 0l0 -9.437508l-5.84375 9.437508l-2.28125 0l0 -12.453133zm12.28125 0l10.109375 0l0 1.75l-4.015625 0l0 10.703133l-2.09375 0l0 -10.703133l-4.0 0l0 -1.75zm12.0859375 0l2.109375 0l0 4.875l2.671875 0q2.609375 0 4.015625 1.015625q1.421875 1.0 1.421875 2.78125q0 1.5625076 -1.1875 2.6718826q-1.171875 1.109375 -3.75 1.109375l-5.28125 0l0 -12.453133zm2.109375 10.718758l2.21875 0q2.0 0 2.859375 -0.484375q0.859375 -0.5 0.859375 -1.5468826q0 -0.8125 -0.640625 -1.4375q-0.625 -0.640625 -2.796875 -0.640625l-2.5 0l0 4.1093826z" fill-rule="nonzero"/><path fill="#ffffff" d="m511.24518 118.44515l9.828125 0l0 12.453133l-2.109375 0l0 -10.703133l-5.609375 0l0 10.703133l-2.109375 0l0 -12.453133zm12.980469 0l2.109375 0l0 9.5l5.859375 -9.5l2.265625 0l0 12.453133l-2.109375 0l0 -9.437508l-5.84375 9.437508l-2.28125 0l0 -12.453133zm13.453125 0l2.109375 0l0 10.718758l5.828125 0l0 -10.718758l2.109375 0l0 10.718758l1.359375 0l0 5.265625l-1.734375 0l0 -3.53125l-9.671875 0l0 -12.453133zm13.746094 0l2.109375 0l0 10.718758l5.828125 0l0 -10.718758l2.109375 0l0 10.718758l1.359375 0l0 5.265625l-1.734375 0l0 -3.53125l-9.671875 0l0 -12.453133zm13.605469 17.250008l-0.234375 -1.984375q0.703125 0.1875 1.21875 0.1875q0.703125 0 1.125 -0.234375q0.421875 -0.234375 0.6875 -0.65625q0.203125 -0.3125 0.640625 -1.5625q0.0625 -0.1875 0.1875 -0.515625l-4.71875 -12.484383l2.265625 0l2.59375 7.21875q0.5 1.359375 0.90625 2.8750076q0.359375 -1.4531326 0.859375 -2.8281326l2.671875 -7.265625l2.109375 0l-4.734375 12.671883q-0.765625 2.046875 -1.1875 2.8125q-0.5625 1.046875 -1.296875 1.53125q-0.71875 0.484375 -1.734375 0.484375q-0.609375 0 -1.359375 -0.25z" fill-rule="nonzero"/><path fill="#4f81bd" d="m-0.0027349081 334.63904l0 0c0 -9.622406 7.8005075 -17.422913 17.42292 -17.422913l250.3195 0c4.6208496 0 9.05246 1.8356323 12.319885 5.103058c3.2674255 3.2674255 5.103058 7.699005 5.103058 12.319855l0 69.689606c0 9.622406 -7.8005066 17.422913 -17.422943 17.422913l-250.3195 0l0 0c-9.622413 0 -17.42292 -7.8005066 -17.42292 -17.422913z" fill-rule="evenodd"/><path stroke="#395e89" stroke-width="2.6666666666666665" stroke-linejoin="round" stroke-linecap="butt" d="m-0.0027349081 334.63904l0 0c0 -9.622406 7.8005075 -17.422913 17.42292 -17.422913l250.3195 0c4.6208496 0 9.05246 1.8356323 12.319885 5.103058c3.2674255 3.2674255 5.103058 7.699005 5.103058 12.319855l0 69.689606c0 9.622406 -7.8005066 17.422913 -17.422943 17.422913l-250.3195 0l0 0c-9.622413 0 -17.42292 -7.8005066 -17.42292 -17.422913z" fill-rule="evenodd"/><path fill="#ffffff" d="m50.175644 360.83633l2.0625 0l0 13.609375l9.140625 -13.609375l2.28125 0l0 17.1875l-2.0625 0l0 -13.578125l-9.15625 13.578125l-2.265625 0l0 -17.1875zm19.703125 11.5625l0 -1.65625q1.328125 -0.015625 1.8125 -0.109375q0.484375 -0.09375 0.921875 -0.5625q0.4375 -0.46875 0.4375 -1.171875q0 -0.84375 -0.578125 -1.359375q-0.5625 -0.515625 -1.46875 -0.515625q-1.78125 0 -2.484375 2.109375l-2.015625 -0.328125q0.9375 -3.515625 4.53125 -3.515625q1.984375 0 3.109375 1.09375q1.140625 1.09375 1.140625 2.609375q0 1.515625 -1.46875 2.421875q0.9375 0.5 1.40625 1.28125q0.46875 0.78125 0.46875 1.84375q0 1.671875 -1.21875 2.71875q-1.21875 1.046875 -3.421875 1.046875q-4.25 0 -4.921875 -3.78125l1.96875 -0.421875q0.28125 1.1875 1.09375 1.84375q0.828125 0.65625 1.90625 0.65625q1.0625 0 1.765625 -0.59375q0.71875 -0.609375 0.71875 -1.546875q0 -0.734375 -0.453125 -1.265625q-0.4375 -0.546875 -0.953125 -0.671875q-0.5 -0.140625 -1.828125 -0.140625q-0.09375 0 -0.46875 0.015625zm8.253906 -6.828125l7.15625 0l0 1.75l-5.046875 0l0 10.703125l-2.109375 0l0 -12.453125zm7.4296875 6.234375q0 -3.46875 1.921875 -5.125q1.609375 -1.390625 3.921875 -1.390625q2.5625 0 4.1875 1.6875q1.625 1.6875 1.625 4.640625q0 2.40625 -0.71875 3.78125q-0.71875 1.375 -2.09375 2.140625q-1.375 0.765625 -3.0 0.765625q-2.625 0 -4.234375 -1.671875q-1.609375 -1.6875 -1.609375 -4.828125zm2.171875 0q0 2.390625 1.03125 3.578125q1.046875 1.1875 2.640625 1.1875q1.5625 0 2.609375 -1.1875q1.046875 -1.203125 1.046875 -3.65625q0 -2.3125 -1.0625 -3.5q-1.046875 -1.1875 -2.59375 -1.1875q-1.59375 0 -2.640625 1.1875q-1.03125 1.1875 -1.03125 3.578125zm10.3046875 -6.234375l10.109375 0l0 1.75l-4.015625 0l0 10.703125l-2.09375 0l0 -10.703125l-4.0 0l0 -1.75zm11.066406 6.234375q0 -3.46875 1.921875 -5.125q1.609375 -1.390625 3.921875 -1.390625q2.5625 0 4.1875 1.6875q1.625 1.6875 1.625 4.640625q0 2.40625 -0.71875 3.78125q-0.71875 1.375 -2.09375 2.140625q-1.375 0.765625 -3.0 0.765625q-2.625 0 -4.234375 -1.671875q-1.609375 -1.6875 -1.609375 -4.828125zm2.171875 0q0 2.390625 1.03125 3.578125q1.046875 1.1875 2.640625 1.1875q1.5625 0 2.609375 -1.1875q1.046875 -1.203125 1.046875 -3.65625q0 -2.3125 -1.0625 -3.5q-1.046875 -1.1875 -2.59375 -1.1875q-1.59375 0 -2.640625 1.1875q-1.03125 1.1875 -1.03125 3.578125zm11.972656 -6.234375l4.859375 0q1.796875 0 2.671875 0.3125q0.875 0.296875 1.5 1.09375q0.625 0.796875 0.625 1.90625q0 0.890625 -0.375 1.5625q-0.359375 0.65625 -1.09375 1.09375q0.875 0.296875 1.453125 1.109375q0.578125 0.796875 0.578125 1.890625q-0.109375 1.765625 -1.265625 2.625q-1.140625 0.859375 -3.34375 0.859375l-5.609375 0l0 -12.453125zm2.109375 5.25l2.25 0q1.34375 0 1.84375 -0.140625q0.515625 -0.140625 0.90625 -0.5625q0.40625 -0.4375 0.40625 -1.03125q0 -0.984375 -0.703125 -1.375q-0.6875 -0.390625 -2.375 -0.390625l-2.328125 0l0 3.5zm0 5.46875l2.78125 0q1.796875 0 2.453125 -0.40625q0.671875 -0.421875 0.703125 -1.453125q0 -0.59375 -0.390625 -1.09375q-0.375 -0.515625 -1.0 -0.640625q-0.625 -0.140625 -1.984375 -0.140625l-2.5625 0l0 3.734375zm10.625 -10.71875l2.109375 0l0 9.5l5.859375 -9.5l2.265625 0l0 12.453125l-2.109375 0l0 -9.4375l-5.84375 9.4375l-2.28125 0l0 -12.453125zm12.28125 0l10.109375 0l0 1.75l-4.015625 0l0 10.703125l-2.09375 0l0 -10.703125l-4.0 0l0 -1.75zm12.0859375 0l2.109375 0l0 4.875l2.671875 0q2.609375 0 4.015625 1.015625q1.421875 1.0 1.421875 2.78125q0 1.5625 -1.1875 2.671875q-1.171875 1.109375 -3.75 1.109375l-5.28125 0l0 -12.453125zm2.109375 10.71875l2.21875 0q2.0 0 2.859375 -0.484375q0.859375 -0.5 0.859375 -1.546875q0 -0.8125 -0.640625 -1.4375q-0.625 -0.640625 -2.796875 -0.640625l-2.5 0l0 4.109375z" fill-rule="nonzero"/><path fill="#ffffff" d="m177.18736 365.5707l10.109375 0l0 1.75l-4.015625 0l0 10.703125l-2.09375 0l0 -10.703125l-4.0 0l0 -1.75zm20.378906 8.4375l2.171875 0.28125q-0.515625 1.90625 -1.90625 2.96875q-1.390625 1.046875 -3.5625 1.046875q-2.734375 0 -4.34375 -1.671875q-1.59375 -1.6875 -1.59375 -4.734375q0 -3.140625 1.609375 -4.875q1.625 -1.734375 4.203125 -1.734375q2.5 0 4.078125 1.703125q1.59375 1.703125 1.59375 4.78125q0 0.1875 -0.015625 0.5625l-9.28125 0q0.109375 2.046875 1.15625 3.140625q1.046875 1.09375 2.609375 1.09375q1.15625 0 1.96875 -0.609375q0.828125 -0.609375 1.3125 -1.953125zm-6.9375 -3.40625l6.953125 0q-0.140625 -1.5625 -0.796875 -2.359375q-1.0 -1.21875 -2.609375 -1.21875q-1.453125 0 -2.453125 0.984375q-0.984375 0.96875 -1.09375 2.59375zm19.878906 2.859375l2.078125 0.265625q-0.34375 2.15625 -1.75 3.375q-1.390625 1.203125 -3.4375 1.203125q-2.546875 0 -4.109375 -1.671875q-1.546875 -1.671875 -1.546875 -4.78125q0 -2.015625 0.671875 -3.53125q0.671875 -1.515625 2.03125 -2.265625q1.359375 -0.765625 2.96875 -0.765625q2.03125 0 3.3125 1.03125q1.296875 1.03125 1.65625 2.90625l-2.046875 0.328125q-0.296875 -1.265625 -1.046875 -1.890625q-0.734375 -0.640625 -1.796875 -0.640625q-1.59375 0 -2.59375 1.15625q-0.984375 1.140625 -0.984375 3.609375q0 2.5 0.953125 3.640625q0.96875 1.140625 2.515625 1.140625q1.234375 0 2.0625 -0.765625q0.84375 -0.765625 1.0625 -2.34375zm2.75 -7.890625l10.109375 0l0 1.75l-4.015625 0l0 10.703125l-2.09375 0l0 -10.703125l-4.0 0l0 -1.75zm11.066406 6.234375q0 -3.46875 1.921875 -5.125q1.609375 -1.390625 3.921875 -1.390625q2.5625 0 4.1875 1.6875q1.625 1.6875 1.625 4.640625q0 2.40625 -0.71875 3.78125q-0.71875 1.375 -2.09375 2.140625q-1.375 0.765625 -3.0 0.765625q-2.625 0 -4.234375 -1.671875q-1.609375 -1.6875 -1.609375 -4.828125zm2.171875 0q0 2.390625 1.03125 3.578125q1.046875 1.1875 2.640625 1.1875q1.5625 0 2.609375 -1.1875q1.046875 -1.203125 1.046875 -3.65625q0 -2.3125 -1.0625 -3.5q-1.046875 -1.1875 -2.59375 -1.1875q-1.59375 0 -2.640625 1.1875q-1.03125 1.1875 -1.03125 3.578125z" fill-rule="nonzero"/><path fill="#4f81bd" d="m323.1605 344.14386l0 0c0 -9.622406 7.8005066 -17.422913 17.422913 -17.422913l259.83133 0c4.6208496 0 9.052429 1.8356018 12.319885 5.103058c3.267395 3.2674255 5.1030273 7.699005 5.1030273 12.319855l0 69.689575c0 9.622437 -7.800476 17.422943 -17.422913 17.422943l-259.83133 0c-9.622406 0 -17.422913 -7.8005066 -17.422913 -17.422943z" fill-rule="evenodd"/><path stroke="#395e89" stroke-width="2.6666666666666665" stroke-linejoin="round" stroke-linecap="butt" d="m323.1605 344.14386l0 0c0 -9.622406 7.8005066 -17.422913 17.422913 -17.422913l259.83133 0c4.6208496 0 9.052429 1.8356018 12.319885 5.103058c3.267395 3.2674255 5.1030273 7.699005 5.1030273 12.319855l0 69.689575c0 9.622437 -7.800476 17.422943 -17.422913 17.422943l-259.83133 0c-9.622406 0 -17.422913 -7.8005066 -17.422913 -17.422943z" fill-rule="evenodd"/><path fill="#ffffff" d="m346.24127 370.34116l10.453125 0l0 15.15625l1.546875 0l0 6.046875l-2.015625 0l0 -4.015625l-11.359375 0l0 4.015625l-2.03125 0l0 -6.046875l1.34375 0q2.0625 -3.125 2.0625 -12.640625l0 -2.515625zm8.1875 2.03125l-5.984375 0l0 0.875q0 2.203125 -0.40625 6.0q-0.390625 3.796875 -1.53125 6.25l7.921875 0l0 -13.125zm5.7265625 8.9375q0 -3.46875 1.921875 -5.125q1.609375 -1.390625 3.921875 -1.390625q2.5625 0 4.1875 1.6875q1.625 1.6875 1.625 4.640625q0 2.40625 -0.71875 3.78125q-0.71875 1.375 -2.09375 2.140625q-1.375 0.765625 -3.0 0.765625q-2.625 0 -4.234375 -1.671875q-1.609375 -1.6875 -1.609375 -4.828125zm2.171875 0q0 2.390625 1.03125 3.578125q1.046875 1.1875 2.640625 1.1875q1.5625 0 2.609375 -1.1875q1.046875 -1.203125 1.046875 -3.65625q0 -2.3125 -1.0625 -3.5q-1.046875 -1.1875 -2.59375 -1.1875q-1.59375 0 -2.640625 1.1875q-1.03125 1.1875 -1.03125 3.578125zm21.082031 -11.375l1.859375 0.03125q-0.125 1.25 -0.5625 1.75q-0.421875 0.484375 -1.09375 0.625q-0.671875 0.140625 -2.640625 0.140625q-2.609375 0 -3.5625 0.5q-0.953125 0.5 -1.375 1.609375q-0.40625 1.109375 -0.453125 2.859375q0.796875 -1.1875 1.859375 -1.78125q1.0625 -0.59375 2.40625 -0.59375q2.453125 0 4.046875 1.6875q1.609375 1.6875 1.609375 4.546875q0 2.1875 -0.8125 3.578125q-0.796875 1.390625 -1.90625 2.15625q-1.109375 0.765625 -3.015625 0.765625q-2.21875 0 -3.453125 -1.015625q-1.234375 -1.015625 -1.890625 -2.59375q-0.65625 -1.578125 -0.65625 -5.515625q0 -4.921875 1.671875 -6.625q1.671875 -1.71875 5.140625 -1.71875q2.15625 0 2.453125 -0.0625q0.296875 -0.078125 0.375 -0.34375zm-0.109375 11.328125q0 -1.953125 -0.921875 -3.1875q-0.921875 -1.25 -2.59375 -1.25q-1.75 0 -2.703125 1.3125q-0.9375 1.3125 -0.9375 3.5q0 2.171875 1.046875 3.328125q1.046875 1.140625 2.578125 1.140625q1.578125 0 2.546875 -1.328125q0.984375 -1.328125 0.984375 -3.515625zm12.3046875 4.734375q-1.171875 0.984375 -2.265625 1.40625q-1.078125 0.40625 -2.3125 0.40625q-2.046875 0 -3.15625 -1.0q-1.09375 -1.0 -1.09375 -2.5625q0 -0.921875 0.40625 -1.671875q0.421875 -0.75 1.09375 -1.203125q0.671875 -0.46875 1.515625 -0.703125q0.625 -0.15625 1.875 -0.3125q2.5625 -0.3125 3.765625 -0.734375q0.015625 -0.421875 0.015625 -0.546875q0 -1.28125 -0.609375 -1.8125q-0.796875 -0.71875 -2.390625 -0.71875q-1.5 0 -2.203125 0.53125q-0.703125 0.515625 -1.046875 1.84375l-2.0625 -0.28125q0.28125 -1.328125 0.921875 -2.140625q0.640625 -0.8125 1.859375 -1.25q1.21875 -0.453125 2.828125 -0.453125q1.59375 0 2.59375 0.375q1.0 0.375 1.46875 0.953125q0.46875 0.5625 0.65625 1.4375q0.09375 0.53125 0.09375 1.9375l0 2.8125q0 2.9375 0.140625 3.71875q0.140625 0.78125 0.53125 1.5l-2.203125 0q-0.328125 -0.65625 -0.421875 -1.53125zm-0.171875 -4.71875q-1.15625 0.46875 -3.453125 0.796875q-1.296875 0.1875 -1.84375 0.421875q-0.53125 0.234375 -0.828125 0.6875q-0.28125 0.453125 -0.28125 1.0q0 0.84375 0.625 1.40625q0.640625 0.5625 1.875 0.5625q1.21875 0 2.171875 -0.53125q0.953125 -0.53125 1.390625 -1.453125q0.34375 -0.71875 0.34375 -2.109375l0 -0.78125zm5.4101562 -6.203125l4.859375 0q1.796875 0 2.671875 0.3125q0.875 0.296875 1.5 1.09375q0.625 0.796875 0.625 1.90625q0 0.890625 -0.375 1.5625q-0.359375 0.65625 -1.09375 1.09375q0.875 0.296875 1.453125 1.109375q0.578125 0.796875 0.578125 1.890625q-0.109375 1.765625 -1.265625 2.625q-1.140625 0.859375 -3.34375 0.859375l-5.609375 0l0 -12.453125zm2.109375 5.25l2.25 0q1.34375 0 1.84375 -0.140625q0.515625 -0.140625 0.90625 -0.5625q0.40625 -0.4375 0.40625 -1.03125q0 -0.984375 -0.703125 -1.375q-0.6875 -0.390625 -2.375 -0.390625l-2.328125 0l0 3.5zm0 5.46875l2.78125 0q1.796875 0 2.453125 -0.40625q0.671875 -0.421875 0.703125 -1.453125q0 -0.59375 -0.390625 -1.09375q-0.375 -0.515625 -1.0 -0.640625q-0.625 -0.140625 -1.984375 -0.140625l-2.5625 0l0 3.734375zm10.625 -10.71875l2.109375 0l0 9.5l5.859375 -9.5l2.265625 0l0 12.453125l-2.109375 0l0 -9.4375l-5.84375 9.4375l-2.28125 0l0 -12.453125zm12.28125 0l10.109375 0l0 1.75l-4.015625 0l0 10.703125l-2.09375 0l0 -10.703125l-4.0 0l0 -1.75zm12.0859375 0l2.109375 0l0 4.875l2.671875 0q2.609375 0 4.015625 1.015625q1.421875 1.0 1.421875 2.78125q0 1.5625 -1.1875 2.671875q-1.171875 1.109375 -3.75 1.109375l-5.28125 0l0 -12.453125zm2.109375 10.71875l2.21875 0q2.0 0 2.859375 -0.484375q0.859375 -0.5 0.859375 -1.546875q0 -0.8125 -0.640625 -1.4375q-0.625 -0.640625 -2.796875 -0.640625l-2.5 0l0 4.109375z" fill-rule="nonzero"/><path fill="#ffffff" d="m455.90533 375.07553l2.109375 0l0 9.5l5.859375 -9.5l2.265625 0l0 12.453125l-2.109375 0l0 -9.4375l-5.84375 9.4375l-2.28125 0l0 -12.453125zm13.421875 0l2.109375 0l0 5.1875l5.84375 0l0 -5.1875l2.109375 0l0 12.453125l-2.109375 0l0 -5.515625l-5.84375 0l0 5.515625l-2.109375 0l0 -12.453125zm13.253906 0l7.15625 0l0 1.75l-5.046875 0l0 10.703125l-2.109375 0l0 -12.453125zm8.738281 17.21875l0 -17.21875l1.921875 0l0 1.625q0.6875 -0.953125 1.53125 -1.421875q0.859375 -0.484375 2.078125 -0.484375q1.59375 0 2.8125 0.828125q1.21875 0.8125 1.84375 2.3125q0.625 1.5 0.625 3.28125q0 1.90625 -0.6875 3.4375q-0.6875 1.53125 -2.0 2.34375q-1.296875 0.8125 -2.734375 0.8125q-1.0625 0 -1.90625 -0.4375q-0.828125 -0.453125 -1.375 -1.140625l0 6.0625l-2.109375 0zm1.921875 -10.921875q0 2.40625 0.96875 3.5625q0.96875 1.140625 2.359375 1.140625q1.40625 0 2.40625 -1.1875q1.0 -1.1875 1.0 -3.6875q0 -2.375 -0.984375 -3.5625q-0.96875 -1.1875 -2.328125 -1.1875q-1.359375 0 -2.390625 1.265625q-1.03125 1.25 -1.03125 3.65625zm19.957031 2.140625l2.171875 0.28125q-0.515625 1.90625 -1.90625 2.96875q-1.390625 1.046875 -3.5625 1.046875q-2.734375 0 -4.34375 -1.671875q-1.59375 -1.6875 -1.59375 -4.734375q0 -3.140625 1.609375 -4.875q1.625 -1.734375 4.203125 -1.734375q2.5 0 4.078125 1.703125q1.59375 1.703125 1.59375 4.78125q0 0.1875 -0.015625 0.5625l-9.28125 0q0.109375 2.046875 1.15625 3.140625q1.046875 1.09375 2.609375 1.09375q1.15625 0 1.96875 -0.609375q0.828125 -0.609375 1.3125 -1.953125zm-6.9375 -3.40625l6.953125 0q-0.140625 -1.5625 -0.796875 -2.359375q-1.0 -1.21875 -2.609375 -1.21875q-1.453125 0 -2.453125 0.984375q-0.984375 0.96875 -1.09375 2.59375zm12.8984375 -5.03125l8.671875 0l0 10.71875l1.34375 0l0 5.265625l-1.734375 0l0 -3.53125l-9.796875 0l0 3.53125l-1.734375 0l0 -5.265625l1.109375 0q2.234375 -3.03125 2.140625 -10.71875zm1.75 1.75q-0.234375 6.0625 -1.875 8.96875l6.703125 0l0 -8.96875l-4.828125 0zm10.582031 -1.75l2.109375 0l0 9.5l5.859375 -9.5l2.265625 0l0 12.453125l-2.109375 0l0 -9.4375l-5.84375 9.4375l-2.28125 0l0 -12.453125zm21.9375 8.4375l2.171875 0.28125q-0.515625 1.90625 -1.90625 2.96875q-1.390625 1.046875 -3.5625 1.046875q-2.734375 0 -4.34375 -1.671875q-1.59375 -1.6875 -1.59375 -4.734375q0 -3.140625 1.609375 -4.875q1.625 -1.734375 4.203125 -1.734375q2.5 0 4.078125 1.703125q1.59375 1.703125 1.59375 4.78125q0 0.1875 -0.015625 0.5625l-9.28125 0q0.109375 2.046875 1.15625 3.140625q1.046875 1.09375 2.609375 1.09375q1.15625 0 1.96875 -0.609375q0.828125 -0.609375 1.3125 -1.953125zm-6.9375 -3.40625l6.953125 0q-0.140625 -1.5625 -0.796875 -2.359375q-1.0 -1.21875 -2.609375 -1.21875q-1.453125 0 -2.453125 0.984375q-0.984375 0.96875 -1.09375 2.59375zm11.769531 -5.03125l2.109375 0l0 5.1875l5.84375 0l0 -5.1875l2.109375 0l0 12.453125l-2.109375 0l0 -5.515625l-5.84375 0l0 5.515625l-2.109375 0l0 -12.453125zm12.113281 0l10.109375 0l0 1.75l-4.015625 0l0 10.703125l-2.09375 0l0 -10.703125l-4.0 0l0 -1.75zm23.976562 0l2.109375 0l0 12.453125l-2.109375 0l0 -12.453125zm-11.8125 0l2.109375 0l0 4.875l2.671875 0q2.625 0 4.03125 1.015625q1.40625 1.0 1.40625 2.78125q0 1.5625 -1.171875 2.671875q-1.171875 1.109375 -3.765625 1.109375l-5.28125 0l0 -12.453125zm2.109375 10.71875l2.21875 0q2.0 0 2.859375 -0.484375q0.859375 -0.5 0.859375 -1.546875q0 -0.8125 -0.640625 -1.4375q-0.625 -0.640625 -2.796875 -0.640625l-2.5 0l0 4.109375z" fill-rule="nonzero"/><path fill="#4f81bd" d="m674.83813 334.63904l0 0c0 -9.622406 7.800537 -17.422913 17.422913 -17.422913l250.31952 0c4.6208496 0 9.052429 1.8356323 12.319885 5.103058c3.267395 3.2674255 5.1030273 7.699005 5.1030273 12.319855l0 69.689606c0 9.622406 -7.800476 17.422913 -17.422913 17.422913l-250.31952 0l0 0c-9.6223755 0 -17.422913 -7.8005066 -17.422913 -17.422913z" fill-rule="evenodd"/><path stroke="#395e89" stroke-width="2.6666666666666665" stroke-linejoin="round" stroke-linecap="butt" d="m674.83813 334.63904l0 0c0 -9.622406 7.800537 -17.422913 17.422913 -17.422913l250.31952 0c4.6208496 0 9.052429 1.8356323 12.319885 5.103058c3.267395 3.2674255 5.1030273 7.699005 5.1030273 12.319855l0 69.689606c0 9.622406 -7.800476 17.422913 -17.422913 17.422913l-250.31952 0l0 0c-9.6223755 0 -17.422913 -7.8005066 -17.422913 -17.422913z" fill-rule="evenodd"/><path fill="#ffffff" d="m777.2802 378.02383l0 -17.1875l6.4375 0q1.96875 0 3.15625 0.53125q1.1875 0.515625 1.859375 1.609375q0.6875 1.078125 0.6875 2.265625q0 1.09375 -0.609375 2.078125q-0.59375 0.96875 -1.796875 1.5625q1.5625 0.453125 2.390625 1.5625q0.84375 1.09375 0.84375 2.59375q0 1.203125 -0.515625 2.25q-0.5 1.03125 -1.25 1.59375q-0.75 0.5625 -1.890625 0.859375q-1.125 0.28125 -2.765625 0.28125l-6.546875 0zm2.265625 -9.96875l3.71875 0q1.515625 0 2.171875 -0.1875q0.859375 -0.265625 1.296875 -0.859375q0.4375 -0.59375 0.4375 -1.5q0 -0.859375 -0.40625 -1.5q-0.40625 -0.65625 -1.171875 -0.890625q-0.765625 -0.25 -2.609375 -0.25l-3.4375 0l0 5.1875zm0 7.9375l4.28125 0q1.09375 0 1.546875 -0.078125q0.78125 -0.140625 1.3125 -0.46875q0.53125 -0.328125 0.859375 -0.953125q0.34375 -0.625 0.34375 -1.453125q0 -0.953125 -0.5 -1.65625q-0.484375 -0.71875 -1.359375 -1.0q-0.875 -0.296875 -2.515625 -0.296875l-3.96875 0l0 5.90625zm25.414062 -10.421875l2.109375 0l0 12.453125l-2.109375 0l0 -12.453125zm-11.8125 0l2.109375 0l0 4.875l2.671875 0q2.625 0 4.03125 1.015625q1.40625 1.0 1.40625 2.78125q0 1.5625 -1.171875 2.671875q-1.171875 1.109375 -3.765625 1.109375l-5.28125 0l0 -12.453125zm2.109375 10.71875l2.21875 0q2.0 0 2.859375 -0.484375q0.859375 -0.5 0.859375 -1.546875q0 -0.8125 -0.640625 -1.4375q-0.625 -0.640625 -2.796875 -0.640625l-2.5 0l0 4.109375zm15.109375 -10.71875l9.828125 0l0 12.453125l-2.109375 0l0 -10.703125l-5.609375 0l0 10.703125l-2.109375 0l0 -12.453125zm21.511719 8.4375l2.171875 0.28125q-0.515625 1.90625 -1.90625 2.96875q-1.390625 1.046875 -3.5625 1.046875q-2.734375 0 -4.34375 -1.671875q-1.59375 -1.6875 -1.59375 -4.734375q0 -3.140625 1.609375 -4.875q1.625 -1.734375 4.203125 -1.734375q2.5 0 4.078125 1.703125q1.59375 1.703125 1.59375 4.78125q0 0.1875 -0.015625 0.5625l-9.28125 0q0.109375 2.046875 1.15625 3.140625q1.046875 1.09375 2.609375 1.09375q1.15625 0 1.96875 -0.609375q0.828125 -0.609375 1.3125 -1.953125zm-6.9375 -3.40625l6.953125 0q-0.140625 -1.5625 -0.796875 -2.359375q-1.0 -1.21875 -2.609375 -1.21875q-1.453125 0 -2.453125 0.984375q-0.984375 0.96875 -1.09375 2.59375zm10.191406 -5.03125l2.109375 0l0 2.359375q0 1.53125 0.171875 2.21875q0.1875 0.671875 0.875 1.1875q0.703125 0.515625 1.734375 0.515625q1.203125 0 3.09375 -0.640625l0 -5.640625l2.109375 0l0 12.453125l-2.109375 0l0 -5.015625q-1.9375 0.609375 -3.625 0.609375q-1.421875 0 -2.515625 -0.71875q-1.078125 -0.71875 -1.46875 -1.765625q-0.375 -1.046875 -0.375 -2.296875l0 -3.265625zm13.238281 0l2.109375 0l0 4.875l2.671875 0q2.609375 0 4.015625 1.015625q1.421875 1.0 1.421875 2.78125q0 1.5625 -1.1875 2.671875q-1.171875 1.109375 -3.75 1.109375l-5.28125 0l0 -12.453125zm2.109375 10.71875l2.21875 0q2.0 0 2.859375 -0.484375q0.859375 -0.5 0.859375 -1.546875q0 -0.8125 -0.640625 -1.4375q-0.625 -0.640625 -2.796875 -0.640625l-2.5 0l0 4.109375z" fill-rule="nonzero"/><g filter="url(#shadowFilter-p2.1)"><use xlink:href="#p2.1" transform="matrix(1.0 0.0 0.0 1.0 0.0 2.099737532808399)"/></g><defs><filter id="shadowFilter-p2.1" filterUnits="userSpaceOnUse"><feGaussianBlur in="SourceAlpha" stdDeviation="1.399825" result="blur"/><feComponentTransfer in="blur" color-interpolation-filters="sRGB"><feFuncR type="linear" slope="0" intercept="0.0"/><feFuncG type="linear" slope="0" intercept="0.0"/><feFuncB type="linear" slope="0" intercept="0.0"/><feFuncA type="linear" slope="0.3764706" intercept="0"/></feComponentTransfer></filter></defs><g id="p2.1"><path fill="#000000" fill-opacity="0.0" d="m323.1605 122.35828l-180.56693 0l0 194.86615" fill-rule="evenodd"/><path stroke="#00b050" stroke-width="2.6666666666666665" stroke-linejoin="round" stroke-linecap="butt" d="m307.1605 122.35828l-164.56693 0l0 185.72723" fill-rule="evenodd"/><path fill="#00b050" stroke="#00b050" stroke-width="2.6666666666666665" stroke-linecap="butt" d="m307.1605 126.7629l12.101593 -4.404625l-12.101593 -4.4046173z" fill-rule="evenodd"/><path fill="#00b050" stroke="#00b050" stroke-width="2.6666666666666665" stroke-linecap="butt" d="m142.59357 308.0855l-2.998886 -2.9989014l2.998886 8.23938l2.998886 -8.23938z" fill-rule="evenodd"/></g><g filter="url(#shadowFilter-p2.2)"><use xlink:href="#p2.2" transform="matrix(1.0 0.0 0.0 1.0 0.0 2.099737532808399)"/></g><defs><filter id="shadowFilter-p2.2" filterUnits="userSpaceOnUse"><feGaussianBlur in="SourceAlpha" stdDeviation="1.399825" result="blur"/><feComponentTransfer in="blur" color-interpolation-filters="sRGB"><feFuncR type="linear" slope="0" intercept="0.0"/><feFuncG type="linear" slope="0" intercept="0.0"/><feFuncB type="linear" slope="0" intercept="0.0"/><feFuncA type="linear" slope="0.3764706" intercept="0"/></feComponentTransfer></filter></defs><g id="p2.2"><path fill="#000000" fill-opacity="0.0" d="m470.49908 174.62599l0 76.89288l0.06298828 0l0 75.201614" fill-rule="evenodd"/><path stroke="#00b050" stroke-width="2.6666666666666665" stroke-linejoin="round" stroke-linecap="butt" d="m470.49905 190.62599l0 60.8929l0.06298828 0l0 66.06268" fill-rule="evenodd"/><path fill="#00b050" stroke="#00b050" stroke-width="2.6666666666666665" stroke-linecap="butt" d="m474.9037 190.62598l-4.4046326 -12.101593l-4.404602 12.101593z" fill-rule="evenodd"/><path fill="#00b050" stroke="#00b050" stroke-width="2.6666666666666665" stroke-linecap="butt" d="m470.56204 317.58157l-2.9988708 -2.9989014l2.9988708 8.23938l2.9989014 -8.23938z" fill-rule="evenodd"/></g><g filter="url(#shadowFilter-p2.3)"><use xlink:href="#p2.3" transform="matrix(1.0 0.0 0.0 1.0 0.0 2.099737532808399)"/></g><defs><filter id="shadowFilter-p2.3" filterUnits="userSpaceOnUse"><feGaussianBlur in="SourceAlpha" stdDeviation="1.399825" result="blur"/><feComponentTransfer in="blur" color-interpolation-filters="sRGB"><feFuncR type="linear" slope="0" intercept="0.0"/><feFuncG type="linear" slope="0" intercept="0.0"/><feFuncB type="linear" slope="0" intercept="0.0"/><feFuncA type="linear" slope="0.3764706" intercept="0"/></feComponentTransfer></filter></defs><g id="p2.3"><path fill="#000000" fill-opacity="0.0" d="m617.83765 122.35828l199.59058 0l0 194.86615" fill-rule="evenodd"/><path stroke="#00b050" stroke-width="2.6666666666666665" stroke-linejoin="round" stroke-linecap="butt" d="m633.83765 122.35828l183.59058 0l0 185.72723" fill-rule="evenodd"/><path fill="#00b050" stroke="#00b050" stroke-width="2.6666666666666665" stroke-linecap="butt" d="m633.83765 117.95366l-12.101624 4.4046173l12.101624 4.404625z" fill-rule="evenodd"/><path fill="#00b050" stroke="#00b050" stroke-width="2.6666666666666665" stroke-linecap="butt" d="m817.4282 308.0855l-2.9989014 -2.9989014l2.9989014 8.23938l2.9989014 -8.23938z" fill-rule="evenodd"/></g><g filter="url(#shadowFilter-p2.4)"><use xlink:href="#p2.4" transform="matrix(1.0 0.0 0.0 1.0 0.0 2.099737532808399)"/></g><defs><filter id="shadowFilter-p2.4" filterUnits="userSpaceOnUse"><feGaussianBlur in="SourceAlpha" stdDeviation="1.399825" result="blur"/><feComponentTransfer in="blur" color-interpolation-filters="sRGB"><feFuncR type="linear" slope="0" intercept="0.0"/><feFuncG type="linear" slope="0" intercept="0.0"/><feFuncB type="linear" slope="0" intercept="0.0"/><feFuncA type="linear" slope="0.3764706" intercept="0"/></feComponentTransfer></filter></defs><g id="p2.4"><path fill="#000000" fill-opacity="0.0" d="m266.13168 640.3804l190.14175 0" fill-rule="evenodd"/><path stroke="#00b050" stroke-width="2.6666666666666665" stroke-linejoin="round" stroke-linecap="butt" d="m266.1317 640.3804l181.0028 0" fill-rule="evenodd"/><path fill="#00b050" stroke="#00b050" stroke-width="2.6666666666666665" stroke-linecap="butt" d="m447.13452 640.3804l-2.9989014 2.9989014l8.23938 -2.9989014l-8.23938 -2.9989014z" fill-rule="evenodd"/></g><path fill="#000000" fill-opacity="0.0" d="m294.64612 583.3514l127.811005 0l0 49.165344l-127.811005 0z" fill-rule="evenodd"/><path fill="#000000" d="m307.05237 593.20386l10.453125 0l0 15.15625l1.546875 0l0 6.046875l-2.015625 0l0 -4.015625l-11.359375 0l0 4.015625l-2.03125 0l0 -6.046875l1.34375 0q2.0625 -3.125 2.0625 -12.640625l0 -2.515625zm8.1875 2.03125l-5.984375 0l0 0.875q0 2.203125 -0.40625 6.0q-0.390625 3.796875 -1.53125 6.25l7.921875 0l0 -13.125zm14.363281 13.625q-1.171875 0.984375 -2.265625 1.40625q-1.078125 0.40625 -2.3125 0.40625q-2.046875 0 -3.15625 -1.0q-1.09375 -1.0 -1.09375 -2.5625q0 -0.921875 0.40625 -1.671875q0.421875 -0.75 1.09375 -1.203125q0.671875 -0.46875 1.515625 -0.703125q0.625 -0.15625 1.875 -0.3125q2.5625 -0.3125 3.765625 -0.734375q0.015625 -0.421875 0.015625 -0.546875q0 -1.28125 -0.609375 -1.8125q-0.796875 -0.71875 -2.390625 -0.71875q-1.5 0 -2.203125 0.53125q-0.703125 0.515625 -1.046875 1.84375l-2.0625 -0.28125q0.28125 -1.328125 0.921875 -2.140625q0.640625 -0.8125 1.859375 -1.25q1.21875 -0.453125 2.828125 -0.453125q1.59375 0 2.59375 0.375q1.0 0.375 1.46875 0.953125q0.46875 0.5625 0.65625 1.4375q0.09375 0.53125 0.09375 1.9375l0 2.8125q0 2.9375 0.140625 3.71875q0.140625 0.78125 0.53125 1.5l-2.203125 0q-0.328125 -0.65625 -0.421875 -1.53125zm-0.171875 -4.71875q-1.15625 0.46875 -3.453125 0.796875q-1.296875 0.1875 -1.84375 0.421875q-0.53125 0.234375 -0.828125 0.6875q-0.28125 0.453125 -0.28125 1.0q0 0.84375 0.625 1.40625q0.640625 0.5625 1.875 0.5625q1.21875 0 2.171875 -0.53125q0.953125 -0.53125 1.390625 -1.453125q0.34375 -0.71875 0.34375 -2.109375l0 -0.78125zm5.4101562 -6.203125l2.109375 0l0 5.1875l5.84375 0l0 -5.1875l2.109375 0l0 12.453125l-2.109375 0l0 -5.515625l-5.84375 0l0 5.515625l-2.109375 0l0 -12.453125zm13.253906 0l2.109375 0l0 5.1875l5.84375 0l0 -5.1875l2.109375 0l0 12.453125l-2.109375 0l0 -5.515625l-5.84375 0l0 5.515625l-2.109375 0l0 -12.453125zm25.097656 0l2.109375 0l0 12.453125l-2.109375 0l0 -12.453125zm-11.8125 0l2.109375 0l0 4.875l2.671875 0q2.625 0 4.03125 1.015625q1.40625 1.0 1.40625 2.78125q0 1.5625 -1.171875 2.671875q-1.171875 1.109375 -3.765625 1.109375l-5.28125 0l0 -12.453125zm2.109375 10.71875l2.21875 0q2.0 0 2.859375 -0.484375q0.859375 -0.5 0.859375 -1.546875q0 -0.8125 -0.640625 -1.4375q-0.625 -0.640625 -2.796875 -0.640625l-2.5 0l0 4.109375zm23.625 -2.28125l2.171875 0.28125q-0.515625 1.90625 -1.90625 2.96875q-1.390625 1.046875 -3.5625 1.046875q-2.734375 0 -4.34375 -1.671875q-1.59375 -1.6875 -1.59375 -4.734375q0 -3.140625 1.609375 -4.875q1.625 -1.734375 4.203125 -1.734375q2.5 0 4.078125 1.703125q1.59375 1.703125 1.59375 4.78125q0 0.1875 -0.015625 0.5625l-9.28125 0q0.109375 2.046875 1.15625 3.140625q1.046875 1.09375 2.609375 1.09375q1.15625 0 1.96875 -0.609375q0.828125 -0.609375 1.3125 -1.953125zm-6.9375 -3.40625l6.953125 0q-0.140625 -1.5625 -0.796875 -2.359375q-1.0 -1.21875 -2.609375 -1.21875q-1.453125 0 -2.453125 0.984375q-0.984375 0.96875 -1.09375 2.59375z" fill-rule="nonzero"/><path fill="#4f81bd" d="m532.2661 586.524l0 0c0 -7.001587 5.6759033 -12.677429 12.677429 -12.677429l259.81055 0c3.3622437 0 6.586792 1.3356323 8.964294 3.7131348c2.3774414 2.3774414 3.7130737 5.6019897 3.7130737 8.964294l0 50.70813c0 7.001526 -5.6758423 12.677429 -12.677368 12.677429l-259.81055 0c-7.001526 0 -12.677429 -5.6759033 -12.677429 -12.677429z" fill-rule="evenodd"/><path stroke="#395e89" stroke-width="2.6666666666666665" stroke-linejoin="round" stroke-linecap="butt" d="m532.2661 586.524l0 0c0 -7.001587 5.6759033 -12.677429 12.677429 -12.677429l259.81055 0c3.3622437 0 6.586792 1.3356323 8.964294 3.7131348c2.3774414 2.3774414 3.7130737 5.6019897 3.7130737 8.964294l0 50.70813c0 7.001526 -5.6758423 12.677429 -12.677368 12.677429l-259.81055 0c-7.001526 0 -12.677429 -5.6759033 -12.677429 -12.677429z" fill-rule="evenodd"/><path fill="#ffffff" d="m598.6574 603.2305l2.265625 0l0 7.53125q1.5625 0 2.1875 -0.59375q0.640625 -0.609375 1.625 -2.90625q0.71875 -1.6875 1.171875 -2.390625q0.46875 -0.703125 1.328125 -1.171875q0.859375 -0.46875 1.890625 -0.46875q1.3125 0 1.375 0.015625l0 1.96875q-0.109375 0 -0.453125 -0.015625q-0.375 0 -0.453125 0q-1.09375 0 -1.625 0.515625q-0.53125 0.53125 -1.234375 2.25q-0.859375 2.1875 -1.46875 2.765625q-0.59375 0.5625 -1.421875 0.890625q1.671875 0.46875 3.28125 3.078125l3.546875 5.71875l-2.828125 0l-2.875 -4.671875q-1.1875 -1.921875 -1.984375 -2.640625q-0.796875 -0.734375 -2.0625 -0.734375l0 8.046875l-2.265625 0l0 -17.1875zm12.886719 10.96875q0 -3.46875 1.921875 -5.125q1.609375 -1.390625 3.921875 -1.390625q2.5625 0 4.1875 1.6875q1.625 1.6875 1.625 4.640625q0 2.40625 -0.71875 3.78125q-0.71875 1.375 -2.09375 2.140625q-1.375 0.765625 -3.0 0.765625q-2.625 0 -4.234375 -1.671875q-1.609375 -1.6875 -1.609375 -4.828125zm2.171875 0q0 2.390625 1.03125 3.578125q1.046875 1.1875 2.640625 1.1875q1.5625 0 2.609375 -1.1875q1.046875 -1.203125 1.046875 -3.65625q0 -2.3125 -1.0625 -3.5q-1.046875 -1.1875 -2.59375 -1.1875q-1.59375 0 -2.640625 1.1875q-1.03125 1.1875 -1.03125 3.578125zm13.1015625 -6.234375l8.671875 0l0 10.71875l1.34375 0l0 5.265625l-1.734375 0l0 -3.53125l-9.796875 0l0 3.53125l-1.734375 0l0 -5.265625l1.109375 0q2.234375 -3.03125 2.140625 -10.71875zm1.75 1.75q-0.234375 6.0625 -1.875 8.96875l6.703125 0l0 -8.96875l-4.828125 0z" fill-rule="nonzero"/><path fill="#ffffff" d="m648.7941 604.2618q-1.109375 2.359375 -1.65625 4.84375q-0.546875 2.46875 -0.546875 4.984375q0 2.515625 0.5625 5.0q0.5625 2.46875 1.625 4.84375q0.0625 0.140625 0.0625 0.234375q0 0.109375 -0.078125 0.171875q-0.078125 0.0625 -0.25 0.09375q-0.171875 0.03125 -0.46875 0.03125q-0.203125 0 -0.359375 -0.015625q-0.15625 -0.015625 -0.265625 -0.046875q-0.109375 -0.03125 -0.1875 -0.078125q-0.0625 -0.046875 -0.09375 -0.109375q-0.640625 -1.1875 -1.125 -2.421875q-0.46875 -1.21875 -0.796875 -2.484375q-0.328125 -1.265625 -0.5 -2.5625q-0.15625 -1.296875 -0.15625 -2.625q0 -1.328125 0.171875 -2.609375q0.1875 -1.296875 0.515625 -2.5625q0.34375 -1.265625 0.8125 -2.5q0.484375 -1.234375 1.09375 -2.4375q0 -0.046875 0.046875 -0.078125q0.0625 -0.046875 0.15625 -0.078125q0.09375 -0.03125 0.25 -0.046875q0.171875 -0.015625 0.4375 -0.015625q0.265625 0 0.421875 0.03125q0.171875 0.03125 0.265625 0.09375q0.09375 0.0625 0.09375 0.15625q0.015625 0.09375 -0.03125 0.1875z" fill-rule="nonzero"/><path fill="#ffffff" d="m659.1027 603.2305l2.109375 0l0 5.953125q0.65625 -0.75 1.4375 -1.125q0.78125 -0.375 1.6875 -0.375q2.21875 0 3.515625 1.859375q1.296875 1.84375 1.296875 4.640625q0 2.921875 -1.40625 4.71875q-1.390625 1.796875 -3.46875 1.796875q-0.671875 0 -1.375 -0.21875q-0.703125 -0.203125 -1.6875 -1.140625l0 5.84375l-2.109375 0l0 -5.84375q-0.640625 0.671875 -1.40625 1.015625q-0.765625 0.34375 -1.65625 0.34375q-1.953125 0 -3.421875 -1.71875q-1.46875 -1.71875 -1.46875 -4.921875q0 -2.703125 1.328125 -4.53125q1.328125 -1.84375 3.5625 -1.84375q0.9375 0 1.703125 0.375q0.765625 0.375 1.359375 1.125l0 -5.953125zm2.09375 11.015625q0 2.8125 0.765625 3.78125q0.78125 0.953125 1.9375 0.953125q1.296875 0 2.203125 -1.1875q0.90625 -1.1875 0.90625 -3.6875q0 -2.375 -0.84375 -3.53125q-0.828125 -1.15625 -2.140625 -1.15625q-1.40625 0 -2.125 1.203125q-0.703125 1.203125 -0.703125 3.625zm-7.890625 -0.234375q0 2.625 0.875 3.796875q0.890625 1.15625 2.203125 1.15625q1.375 0 2.046875 -1.15625q0.6875 -1.15625 0.6875 -3.46875q0 -2.453125 -0.71875 -3.6875q-0.71875 -1.234375 -2.15625 -1.234375q-1.296875 0 -2.125 1.203125q-0.8125 1.203125 -0.8125 3.390625zm17.929688 11.203125l-0.234375 -1.984375q0.703125 0.1875 1.21875 0.1875q0.703125 0 1.125 -0.234375q0.421875 -0.234375 0.6875 -0.65625q0.203125 -0.3125 0.640625 -1.5625q0.0625 -0.1875 0.1875 -0.515625l-4.71875 -12.484375l2.265625 0l2.59375 7.21875q0.5 1.359375 0.90625 2.875q0.359375 -1.453125 0.859375 -2.828125l2.671875 -7.265625l2.109375 0l-4.734375 12.671875q-0.765625 2.046875 -1.1875 2.8125q-0.5625 1.046875 -1.296875 1.53125q-0.71875 0.484375 -1.734375 0.484375q-0.609375 0 -1.359375 -0.25zm12.109375 -17.25l2.109375 0l0 5.1875l5.84375 0l0 -5.1875l2.109375 0l0 12.453125l-2.109375 0l0 -5.515625l-5.84375 0l0 5.515625l-2.109375 0l0 -12.453125zm13.238281 0l2.109375 0l0 5.390625q1.0 0 1.40625 -0.390625q0.40625 -0.390625 1.1875 -2.25q0.625 -1.484375 1.0 -1.953125q0.390625 -0.46875 0.890625 -0.625q0.515625 -0.171875 1.625 -0.171875l0.421875 0l0 1.75l-0.578125 -0.015625q-0.84375 0 -1.078125 0.25q-0.234375 0.265625 -0.75 1.53125q-0.46875 1.21875 -0.875 1.6875q-0.390625 0.46875 -1.234375 0.859375q1.359375 0.359375 2.671875 2.53125l2.3125 3.859375l-2.3125 0l-2.25 -3.859375q-0.703125 -1.15625 -1.21875 -1.515625q-0.515625 -0.375 -1.21875 -0.375l0 5.75l-2.109375 0l0 -12.453125zm10.546875 0l2.109375 0l0 10.71875l5.828125 0l0 -10.71875l2.109375 0l0 10.71875l1.359375 0l0 5.265625l-1.734375 0l0 -3.53125l-9.671875 0l0 -12.453125zm13.699219 0l2.109375 0l0 9.5l5.859375 -9.5l2.265625 0l0 12.453125l-2.109375 0l0 -9.4375l-5.84375 9.4375l-2.28125 0l0 -12.453125zm23.203125 0l0 12.453125l-2.09375 0l0 -4.859375l-1.21875 0q-1.109375 0 -1.65625 0.296875q-0.546875 0.28125 -1.59375 1.84375l-1.828125 2.71875l-2.625 0l2.28125 -3.359375q1.046875 -1.53125 2.078125 -1.734375q-1.8125 -0.234375 -2.6875 -1.28125q-0.875 -1.0625 -0.875 -2.4375q0 -1.625 1.140625 -2.625q1.15625 -1.015625 3.3125 -1.015625l5.765625 0zm-2.09375 1.75l-3.0 0q-1.890625 0 -2.4375 0.59375q-0.53125 0.578125 -0.53125 1.359375q0 1.125 0.796875 1.640625q0.796875 0.515625 2.84375 0.515625l2.328125 0l0 -4.109375z" fill-rule="nonzero"/><path fill="#ffffff" d="m751.3566 614.12115q0 1.328125 -0.171875 2.625q-0.15625 1.296875 -0.484375 2.5625q-0.328125 1.265625 -0.796875 2.484375q-0.46875 1.234375 -1.109375 2.421875q-0.03125 0.0625 -0.109375 0.109375q-0.0625 0.046875 -0.171875 0.078125q-0.109375 0.03125 -0.265625 0.046875q-0.15625 0.015625 -0.359375 0.015625q-0.3125 0 -0.484375 -0.03125q-0.171875 -0.03125 -0.25 -0.09375q-0.0625 -0.0625 -0.0625 -0.171875q0 -0.09375 0.0625 -0.234375q1.078125 -2.359375 1.625 -4.84375q0.5625 -2.484375 0.5625 -5.0q0 -2.515625 -0.5625 -4.984375q-0.546875 -2.484375 -1.640625 -4.84375q-0.046875 -0.09375 -0.046875 -0.1875q0.015625 -0.09375 0.109375 -0.15625q0.09375 -0.0625 0.25 -0.09375q0.171875 -0.03125 0.4375 -0.03125q0.25 0 0.40625 0.015625q0.171875 0.015625 0.265625 0.046875q0.109375 0.03125 0.15625 0.078125q0.046875 0.03125 0.0625 0.078125q1.21875 2.40625 1.890625 4.9375q0.6875 2.53125 0.6875 5.171875z" fill-rule="nonzero"/></g></svg>