<svg version="1.1" viewBox="0.0 0.0 960.0 720.0" fill="none" stroke="none" stroke-linecap="square" stroke-miterlimit="10" xmlns:xlink="http://www.w3.org/1999/xlink" xmlns="http://www.w3.org/2000/svg"><clipPath id="p10.0"><path d="m0 0l960.0 0l0 720.0l-960.0 0l0 -720.0z" clip-rule="nonzero"/></clipPath><g clip-path="url(#p10.0)"><path fill="#ffffff" d="m0 0l960.0 0l0 720.0l-960.0 0z" fill-rule="evenodd"/><path fill="#4f81bd" d="m337.499 112.49827l225.00156 0l0 82.50059l-225.00156 0z" fill-rule="evenodd"/><path stroke="#395e89" stroke-width="2.6666666666666665" stroke-linejoin="round" stroke-linecap="butt" d="m337.499 112.49827l225.00156 0l0 82.50059l-225.00156 0z" fill-rule="evenodd"/><path fill="#ffffff" d="m382.06424 162.28856l6.59375 -17.1875l2.453125 0l7.03125 17.1875l-2.59375 0l-2.0 -5.203125l-7.1875 0l-1.890625 5.203125l-2.40625 0zm4.953125 -7.0625l5.828125 0l-1.796875 -4.75q-0.8125 -2.171875 -1.21875 -3.5625q-0.328125 1.65625 -0.921875 3.28125l-1.890625 5.03125zm12.6796875 -5.390625l4.859375 0q1.796875 0 2.671875 0.3125q0.875 0.296875 1.5 1.09375q0.625 0.796875 0.625 1.90625q0 0.890625 -0.375 1.5625q-0.359375 0.65625 -1.09375 1.09375q0.875 0.296875 1.453125 1.109375q0.578125 0.796875 0.578125 1.890625q-0.109375 1.765625 -1.265625 2.625q-1.140625 0.859375 -3.34375 0.859375l-5.609375 0l0 -12.453125zm2.109375 5.25l2.25 0q1.34375 0 1.84375 -0.140625q0.515625 -0.140625 0.90625 -0.5625q0.40625 -0.4375 0.40625 -1.03125q0 -0.984375 -0.703125 -1.375q-0.6875 -0.390625 -2.375 -0.390625l-2.328125 0l0 3.5zm0 5.46875l2.78125 0q1.796875 0 2.453125 -0.40625q0.671875 -0.421875 0.703125 -1.453125q0 -0.59375 -0.390625 -1.09375q-0.375 -0.515625 -1.0 -0.640625q-0.625 -0.140625 -1.984375 -0.140625l-2.5625 0l0 3.734375zm8.972656 -10.71875l10.109375 0l0 1.75l-4.015625 0l0 10.703125l-2.09375 0l0 -10.703125l-4.0 0l0 -1.75zm11.066406 6.234375q0 -3.46875 1.921875 -5.125q1.609375 -1.390625 3.921875 -1.390625q2.5625 0 4.1875 1.6875q1.625 1.6875 1.625 4.640625q0 2.40625 -0.71875 3.78125q-0.71875 1.375 -2.09375 2.140625q-1.375 0.765625 -3.0 0.765625q-2.625 0 -4.234375 -1.671875q-1.609375 -1.6875 -1.609375 -4.828125zm2.171875 0q0 2.390625 1.03125 3.578125q1.046875 1.1875 2.640625 1.1875q1.5625 0 2.609375 -1.1875q1.046875 -1.203125 1.046875 -3.65625q0 -2.3125 -1.0625 -3.5q-1.046875 -1.1875 -2.59375 -1.1875q-1.59375 0 -2.640625 1.1875q-1.03125 1.1875 -1.03125 3.578125zm12.019531 -6.234375l3.28125 0l3.265625 9.96875l3.640625 -9.96875l3.03125 0l0 12.453125l-2.109375 0l0 -10.015625l-3.671875 10.015625l-1.890625 0l-3.484375 -10.5l0 10.5l-2.0625 0l0 -12.453125zm15.65625 6.234375q0 -3.46875 1.921875 -5.125q1.609375 -1.390625 3.921875 -1.390625q2.5625 0 4.1875 1.6875q1.625 1.6875 1.625 4.640625q0 2.40625 -0.71875 3.78125q-0.71875 1.375 -2.09375 2.140625q-1.375 0.765625 -3.0 0.765625q-2.625 0 -4.234375 -1.671875q-1.609375 -1.6875 -1.609375 -4.828125zm2.171875 0q0 2.390625 1.03125 3.578125q1.046875 1.1875 2.640625 1.1875q1.5625 0 2.609375 -1.1875q1.046875 -1.203125 1.046875 -3.65625q0 -2.3125 -1.0625 -3.5q-1.046875 -1.1875 -2.59375 -1.1875q-1.59375 0 -2.640625 1.1875q-1.03125 1.1875 -1.03125 3.578125zm21.082031 -11.375l1.859375 0.03125q-0.125 1.25 -0.5625 1.75q-0.421875 0.484375 -1.09375 0.625q-0.671875 0.140625 -2.640625 0.140625q-2.609375 0 -3.5625 0.5q-0.953125 0.5 -1.375 1.609375q-0.40625 1.109375 -0.453125 2.859375q0.796875 -1.1875 1.859375 -1.78125q1.0625 -0.59375 2.40625 -0.59375q2.453125 0 4.046875 1.6875q1.609375 1.6875 1.609375 4.546875q0 2.1875 -0.8125 3.578125q-0.796875 1.390625 -1.90625 2.15625q-1.109375 0.765625 -3.015625 0.765625q-2.21875 0 -3.453125 -1.015625q-1.234375 -1.015625 -1.890625 -2.59375q-0.65625 -1.578125 -0.65625 -5.515625q0 -4.921875 1.671875 -6.625q1.671875 -1.71875 5.140625 -1.71875q2.15625 0 2.453125 -0.0625q0.296875 -0.078125 0.375 -0.34375zm-0.109375 11.328125q0 -1.953125 -0.921875 -3.1875q-0.921875 -1.25 -2.59375 -1.25q-1.75 0 -2.703125 1.3125q-0.9375 1.3125 -0.9375 3.5q0 2.171875 1.046875 3.328125q1.046875 1.140625 2.578125 1.140625q1.578125 0 2.546875 -1.328125q0.984375 -1.328125 0.984375 -3.515625zm4.7304688 -6.1875l2.109375 0l0 9.5l5.859375 -9.5l2.265625 0l0 12.453125l-2.109375 0l0 -9.4375l-5.84375 9.4375l-2.28125 0l0 -12.453125zm14.4375 0l9.796875 0l0 12.453125l-2.09375 0l0 -10.703125l-5.59375 0l0 6.203125q0 2.171875 -0.140625 2.859375q-0.140625 0.6875 -0.78125 1.203125q-0.625 0.515625 -1.8125 0.515625q-0.734375 0 -1.703125 -0.09375l0 -1.75l0.921875 0q0.65625 0 0.9375 -0.140625q0.28125 -0.140625 0.375 -0.421875q0.09375 -0.296875 0.09375 -1.921875l0 -8.203125zm12.941406 0l2.109375 0l0 4.875l2.671875 0q2.6094055 0 4.0156555 1.015625q1.421875 1.0 1.421875 2.78125q0 1.5625 -1.1875 2.671875q-1.171875 1.109375 -3.75 1.109375l-5.2812805 0l0 -12.453125zm2.109375 10.71875l2.21875 0q2.0000305 0 2.8594055 -0.484375q0.859375 -0.5 0.859375 -1.546875q0 -0.8125 -0.640625 -1.4375q-0.625 -0.640625 -2.7969055 -0.640625l-2.5 0l0 4.109375z" fill-rule="nonzero"/><path fill="#9bbb59" d="m134.99757 277.49942l225.0016 0l0 82.50058l-225.0016 0z" fill-rule="evenodd"/><path stroke="#718840" stroke-width="2.6666666666666665" stroke-linejoin="round" stroke-linecap="butt" d="m134.99757 277.49942l225.0016 0l0 82.50058l-225.0016 0z" fill-rule="evenodd"/><path fill="#ffffff" d="m225.31087 312.99283q0 0.21875 -0.03125 0.390625q-0.015625 0.15625 -0.0625 0.265625q-0.046875 0.09375 -0.125 0.140625q-0.078125 0.046875 -0.171875 0.046875l-4.265625 0l0 13.140625q0 0.09375 -0.046875 0.171875q-0.046875 0.0625 -0.171875 0.109375q-0.109375 0.046875 -0.3125 0.078125q-0.1875 0.03125 -0.484375 0.03125q-0.28125 0 -0.484375 -0.03125q-0.1875 -0.03125 -0.3125 -0.078125q-0.109375 -0.046875 -0.15625 -0.109375q-0.046875 -0.078125 -0.046875 -0.171875l0 -13.140625l-4.265625 0q-0.09375 0 -0.171875 -0.046875q-0.078125 -0.046875 -0.125 -0.140625q-0.046875 -0.109375 -0.078125 -0.265625q-0.03125 -0.171875 -0.03125 -0.390625q0 -0.21875 0.03125 -0.390625q0.03125 -0.171875 0.078125 -0.28125q0.046875 -0.109375 0.125 -0.15625q0.078125 -0.046875 0.171875 -0.046875l10.546875 0q0.09375 0 0.171875 0.046875q0.078125 0.046875 0.125 0.15625q0.046875 0.109375 0.0625 0.28125q0.03125 0.171875 0.03125 0.390625zm11.7890625 8.609375q0 1.296875 -0.34375 2.375q-0.34375 1.078125 -1.015625 1.875q-0.671875 0.78125 -1.6875 1.21875q-1.015625 0.4375 -2.34375 0.4375q-1.3125 0 -2.28125 -0.375q-0.953125 -0.390625 -1.609375 -1.125q-0.640625 -0.75 -0.953125 -1.796875q-0.3125 -1.0625 -0.3125 -2.390625q0 -1.296875 0.328125 -2.375q0.328125 -1.09375 1.0 -1.875q0.6875 -0.78125 1.6875 -1.21875q1.015625 -0.4375 2.359375 -0.4375q1.296875 0 2.265625 0.390625q0.96875 0.390625 1.609375 1.125q0.640625 0.734375 0.96875 1.796875q0.328125 1.046875 0.328125 2.375zm-2.046875 0.125q0 -0.84375 -0.15625 -1.609375q-0.15625 -0.765625 -0.53125 -1.328125q-0.359375 -0.578125 -0.984375 -0.90625q-0.609375 -0.34375 -1.53125 -0.34375q-0.859375 0 -1.484375 0.3125q-0.609375 0.296875 -1.015625 0.859375q-0.390625 0.546875 -0.59375 1.3125q-0.1875 0.765625 -0.1875 1.65625q0 0.875 0.15625 1.640625q0.171875 0.75 0.53125 1.328125q0.375 0.5625 0.984375 0.90625q0.625 0.328125 1.5625 0.328125q0.84375 0 1.453125 -0.296875q0.625 -0.3125 1.015625 -0.859375q0.40625 -0.5625 0.59375 -1.3125q0.1875 -0.765625 0.1875 -1.6875zm9.6875 5.5625l-1.40625 3.875q-0.0625 0.1875 -0.359375 0.28125q-0.28125 0.109375 -0.859375 0.109375q-0.3125 0 -0.5 -0.03125q-0.1875 -0.03125 -0.296875 -0.109375q-0.09375 -0.0625 -0.109375 -0.1875q0 -0.109375 0.0625 -0.265625l1.453125 -3.671875q-0.09375 -0.046875 -0.1875 -0.15625q-0.09375 -0.109375 -0.140625 -0.21875l-3.75 -10.078125q-0.09375 -0.25 -0.09375 -0.390625q0 -0.140625 0.09375 -0.21875q0.09375 -0.078125 0.296875 -0.109375q0.21875 -0.03125 0.5625 -0.03125q0.359375 0 0.546875 0.015625q0.203125 0.015625 0.3125 0.0625q0.125 0.046875 0.171875 0.140625q0.0625 0.078125 0.125 0.234375l3.0 8.46875l0.046875 0l2.90625 -8.515625q0.0625 -0.21875 0.15625 -0.28125q0.109375 -0.0625 0.296875 -0.09375q0.203125 -0.03125 0.578125 -0.03125q0.328125 0 0.53125 0.03125q0.21875 0.03125 0.3125 0.109375q0.109375 0.078125 0.109375 0.21875q0 0.140625 -0.0625 0.359375l-3.796875 10.484375zm15.8789215 -5.6875q0 1.296875 -0.34375 2.375q-0.34375 1.078125 -1.015625 1.875q-0.671875 0.78125 -1.6875 1.21875q-1.015625 0.4375 -2.3437653 0.4375q-1.3125 0 -2.28125 -0.375q-0.953125 -0.390625 -1.609375 -1.125q-0.640625 -0.75 -0.953125 -1.796875q-0.3125 -1.0625 -0.3125 -2.390625q0 -1.296875 0.328125 -2.375q0.328125 -1.09375 1.0 -1.875q0.6875 -0.78125 1.6875 -1.21875q1.015625 -0.4375 2.359375 -0.4375q1.2968903 0 2.2656403 0.390625q0.96875 0.390625 1.609375 1.125q0.640625 0.734375 0.96875 1.796875q0.328125 1.046875 0.328125 2.375zm-2.046875 0.125q0 -0.84375 -0.15625 -1.609375q-0.15625 -0.765625 -0.53125 -1.328125q-0.359375 -0.578125 -0.984375 -0.90625q-0.609375 -0.34375 -1.5312653 -0.34375q-0.859375 0 -1.484375 0.3125q-0.609375 0.296875 -1.015625 0.859375q-0.390625 0.546875 -0.59375 1.3125q-0.1875 0.765625 -0.1875 1.65625q0 0.875 0.15625 1.640625q0.171875 0.75 0.53125 1.328125q0.375 0.5625 0.984375 0.90625q0.625 0.328125 1.5625 0.328125q0.84376526 0 1.4531403 -0.296875q0.625 -0.3125 1.015625 -0.859375q0.40625 -0.5625 0.59375 -1.3125q0.1875 -0.765625 0.1875 -1.6875zm10.375 4.5q0 0.328125 -0.046875 0.53125q-0.046875 0.203125 -0.140625 0.296875q-0.09375 0.09375 -0.28125 0.1875q-0.1875 0.078125 -0.4375 0.125q-0.234375 0.046875 -0.5 0.078125q-0.265625 0.046875 -0.546875 0.046875q-0.8125 0 -1.40625 -0.21875q-0.578125 -0.21875 -0.953125 -0.65625q-0.375 -0.4375 -0.546875 -1.109375q-0.171875 -0.6875 -0.171875 -1.59375l0 -6.171875l-1.46875 0q-0.1875 0 -0.296875 -0.1875q-0.09375 -0.1875 -0.09375 -0.609375q0 -0.21875 0.03125 -0.359375q0.03125 -0.15625 0.078125 -0.25q0.046875 -0.109375 0.109375 -0.140625q0.078125 -0.046875 0.171875 -0.046875l1.46875 0l0 -2.515625q0 -0.078125 0.03125 -0.140625q0.046875 -0.078125 0.15625 -0.125q0.125 -0.0625 0.3125 -0.078125q0.1875 -0.03125 0.46875 -0.03125q0.28125 0 0.46875 0.03125q0.1875 0.015625 0.296875 0.078125q0.109375 0.046875 0.15625 0.125q0.046875 0.0625 0.046875 0.140625l0 2.515625l2.703125 0q0.09375 0 0.15625 0.046875q0.078125 0.03125 0.125 0.140625q0.0625 0.09375 0.078125 0.25q0.03125 0.140625 0.03125 0.359375q0 0.421875 -0.109375 0.609375q-0.109375 0.1875 -0.28125 0.1875l-2.703125 0l0 5.890625q0 1.09375 0.3125 1.65625q0.328125 0.546875 1.15625 0.546875q0.28125 0 0.484375 -0.046875q0.21875 -0.0625 0.375 -0.109375q0.171875 -0.0625 0.28125 -0.109375q0.125 -0.0625 0.21875 -0.0625q0.046875 0 0.09375 0.03125q0.0625 0.03125 0.09375 0.109375q0.03125 0.078125 0.046875 0.21875q0.03125 0.140625 0.03125 0.359375zm10.4921875 0.78125q0 0.140625 -0.09375 0.21875q-0.09375 0.0625 -0.265625 0.09375q-0.15625 0.046875 -0.46875 0.046875q-0.296875 0 -0.484375 -0.046875q-0.1875 -0.03125 -0.265625 -0.09375q-0.078125 -0.078125 -0.078125 -0.21875l0 -1.0625q-0.6875 0.75 -1.546875 1.15625q-0.84375 0.40625 -1.796875 0.40625q-0.828125 0 -1.5 -0.21875q-0.671875 -0.21875 -1.15625 -0.625q-0.46875 -0.40625 -0.734375 -1.0q-0.265625 -0.609375 -0.265625 -1.359375q0 -0.890625 0.359375 -1.546875q0.375 -0.65625 1.046875 -1.09375q0.6875 -0.4375 1.671875 -0.65625q0.984375 -0.21875 2.203125 -0.21875l1.453125 0l0 -0.8125q0 -0.609375 -0.125 -1.078125q-0.125 -0.46875 -0.421875 -0.78125q-0.28125 -0.3125 -0.734375 -0.46875q-0.453125 -0.15625 -1.125 -0.15625q-0.71875 0 -1.296875 0.171875q-0.5625 0.171875 -0.984375 0.375q-0.421875 0.203125 -0.71875 0.375q-0.28125 0.171875 -0.421875 0.171875q-0.09375 0 -0.171875 -0.046875q-0.0625 -0.046875 -0.125 -0.140625q-0.046875 -0.09375 -0.078125 -0.234375q-0.015625 -0.15625 -0.015625 -0.328125q0 -0.296875 0.03125 -0.46875q0.046875 -0.171875 0.203125 -0.3125q0.171875 -0.15625 0.546875 -0.359375q0.390625 -0.21875 0.890625 -0.375q0.515625 -0.171875 1.109375 -0.28125q0.59375 -0.125 1.203125 -0.125q1.140625 0 1.9375 0.265625q0.796875 0.25 1.28125 0.75q0.5 0.5 0.71875 1.25q0.21875 0.734375 0.21875 1.71875l0 7.109375zm-1.921875 -4.8125l-1.640625 0q-0.796875 0 -1.390625 0.140625q-0.578125 0.125 -0.96875 0.390625q-0.390625 0.265625 -0.578125 0.640625q-0.171875 0.359375 -0.171875 0.84375q0 0.8125 0.515625 1.296875q0.53125 0.484375 1.46875 0.484375q0.75 0 1.40625 -0.375q0.65625 -0.390625 1.359375 -1.1875l0 -2.234375z" fill-rule="nonzero"/><path fill="#4bacc6" d="m29.99685 465.00073l150.00104 0l0 82.50061l-150.00104 0z" fill-rule="evenodd"/><path stroke="#367d90" stroke-width="2.6666666666666665" stroke-linejoin="round" stroke-linecap="butt" d="m29.99685 465.00073l150.00104 0l0 82.50061l-150.00104 0z" fill-rule="evenodd"/><path fill="#ffffff" d="m85.790344 512.6504q0 0.1875 -0.015625 0.328125q0 0.140625 -0.03125 0.25q-0.03125 0.09375 -0.078125 0.1875q-0.046875 0.078125 -0.171875 0.203125q-0.109375 0.109375 -0.484375 0.34375q-0.375 0.234375 -0.9375 0.46875q-0.546875 0.234375 -1.28125 0.390625q-0.71875 0.15625 -1.5625 0.15625q-1.484375 0 -2.671875 -0.484375q-1.1875 -0.5 -2.03125 -1.453125q-0.828125 -0.96875 -1.28125 -2.375q-0.453125 -1.421875 -0.453125 -3.265625q0 -1.875 0.484375 -3.34375q0.484375 -1.484375 1.359375 -2.515625q0.890625 -1.03125 2.109375 -1.5625q1.21875 -0.546875 2.71875 -0.546875q0.65625 0 1.265625 0.125q0.625 0.125 1.15625 0.3125q0.53125 0.1875 0.9375 0.4375q0.40625 0.25 0.5625 0.40625q0.15625 0.15625 0.203125 0.234375q0.046875 0.078125 0.078125 0.203125q0.03125 0.109375 0.046875 0.265625q0.015625 0.140625 0.015625 0.359375q0 0.234375 -0.03125 0.40625q-0.015625 0.15625 -0.0625 0.265625q-0.046875 0.109375 -0.109375 0.171875q-0.0625 0.046875 -0.15625 0.046875q-0.15625 0 -0.453125 -0.234375q-0.296875 -0.234375 -0.765625 -0.5q-0.453125 -0.28125 -1.125 -0.5q-0.65625 -0.234375 -1.578125 -0.234375q-1.015625 0 -1.84375 0.40625q-0.8125 0.40625 -1.40625 1.1875q-0.578125 0.78125 -0.90625 1.921875q-0.328125 1.125 -0.328125 2.578125q0 1.4375 0.3125 2.546875q0.3125 1.109375 0.890625 1.859375q0.578125 0.734375 1.421875 1.125q0.84375 0.375 1.921875 0.375q0.890625 0 1.5625 -0.21875q0.6875 -0.234375 1.15625 -0.5q0.46875 -0.28125 0.765625 -0.5q0.3125 -0.21875 0.5 -0.21875q0.078125 0 0.125 0.03125q0.0625 0.03125 0.09375 0.140625q0.046875 0.09375 0.0625 0.265625q0.015625 0.171875 0.015625 0.453125zm10.390625 1.859375q0 0.140625 -0.09375 0.21875q-0.09375 0.0625 -0.265625 0.09375q-0.15625 0.046875 -0.46875 0.046875q-0.296875 0 -0.484375 -0.046875q-0.1875 -0.03125 -0.265625 -0.09375q-0.078125 -0.078125 -0.078125 -0.21875l0 -1.0625q-0.6875 0.75 -1.546875 1.15625q-0.84375 0.40625 -1.796875 0.40625q-0.828125 0 -1.5 -0.21875q-0.671875 -0.21875 -1.15625 -0.625q-0.46875 -0.40625 -0.734375 -1.0q-0.265625 -0.609375 -0.265625 -1.359375q0 -0.890625 0.359375 -1.546875q0.375 -0.65625 1.046875 -1.09375q0.6875 -0.4375 1.671875 -0.65625q0.984375 -0.21875 2.203125 -0.21875l1.453125 0l0 -0.8125q0 -0.609375 -0.125 -1.078125q-0.125 -0.46875 -0.421875 -0.78125q-0.28125 -0.3125 -0.734375 -0.46875q-0.453125 -0.15625 -1.125 -0.15625q-0.71875 0 -1.296875 0.171875q-0.5625 0.171875 -0.984375 0.375q-0.421875 0.203125 -0.71875 0.375q-0.28125 0.171875 -0.421875 0.171875q-0.09375 0 -0.171875 -0.046875q-0.0625 -0.046875 -0.125 -0.140625q-0.046875 -0.09375 -0.078125 -0.234375q-0.015625 -0.15625 -0.015625 -0.328125q0 -0.296875 0.03125 -0.46875q0.046875 -0.171875 0.203125 -0.3125q0.171875 -0.15625 0.546875 -0.359375q0.390625 -0.21875 0.890625 -0.375q0.515625 -0.171875 1.109375 -0.28125q0.59375 -0.125 1.203125 -0.125q1.140625 0 1.9375 0.265625q0.796875 0.25 1.28125 0.75q0.5 0.5 0.71875 1.25q0.21875 0.734375 0.21875 1.71875l0 7.109375zm-1.921875 -4.8125l-1.640625 0q-0.796875 0 -1.390625 0.140625q-0.578125 0.125 -0.96875 0.390625q-0.390625 0.265625 -0.578125 0.640625q-0.171875 0.359375 -0.171875 0.84375q0 0.8125 0.515625 1.296875q0.53125 0.484375 1.46875 0.484375q0.75 0 1.40625 -0.375q0.65625 -0.390625 1.359375 -1.1875l0 -2.234375zm21.121094 4.796875q0 0.09375 -0.046875 0.15625q-0.046875 0.0625 -0.15625 0.125q-0.09375 0.046875 -0.28125 0.0625q-0.1875 0.03125 -0.46875 0.03125q-0.296875 0 -0.484375 -0.03125q-0.1875 -0.015625 -0.296875 -0.0625q-0.109375 -0.0625 -0.15625 -0.125q-0.046875 -0.0625 -0.046875 -0.15625l0 -6.40625q0 -0.671875 -0.125 -1.21875q-0.109375 -0.546875 -0.375 -0.9375q-0.25 -0.40625 -0.65625 -0.609375q-0.390625 -0.21875 -0.9375 -0.21875q-0.671875 0 -1.34375 0.515625q-0.671875 0.515625 -1.484375 1.5l0 7.375q0 0.09375 -0.046875 0.15625q-0.046875 0.0625 -0.15625 0.125q-0.109375 0.046875 -0.296875 0.0625q-0.1875 0.03125 -0.46875 0.03125q-0.265625 0 -0.46875 -0.03125q-0.1875 -0.015625 -0.296875 -0.0625q-0.109375 -0.0625 -0.15625 -0.125q-0.03125 -0.0625 -0.03125 -0.15625l0 -6.40625q0 -0.671875 -0.140625 -1.21875q-0.125 -0.546875 -0.390625 -0.9375q-0.25 -0.40625 -0.640625 -0.609375q-0.390625 -0.21875 -0.9375 -0.21875q-0.65625 0 -1.34375 0.515625q-0.671875 0.515625 -1.46875 1.5l0 7.375q0 0.09375 -0.046875 0.15625q-0.046875 0.0625 -0.15625 0.125q-0.109375 0.046875 -0.296875 0.0625q-0.1875 0.03125 -0.484375 0.03125q-0.28125 0 -0.46875 -0.03125q-0.1875 -0.015625 -0.296875 -0.0625q-0.109375 -0.0625 -0.15625 -0.125q-0.03125 -0.0625 -0.03125 -0.15625l0 -10.546875q0 -0.09375 0.03125 -0.15625q0.03125 -0.0625 0.140625 -0.109375q0.109375 -0.0625 0.265625 -0.078125q0.171875 -0.015625 0.4375 -0.015625q0.265625 0 0.421875 0.015625q0.171875 0.015625 0.265625 0.078125q0.09375 0.046875 0.140625 0.109375q0.046875 0.0625 0.046875 0.15625l0 1.390625q0.890625 -0.984375 1.71875 -1.453125q0.84375 -0.46875 1.703125 -0.46875q0.65625 0 1.171875 0.15625q0.515625 0.15625 0.90625 0.4375q0.40625 0.265625 0.6875 0.65625q0.28125 0.375 0.46875 0.84375q0.53125 -0.578125 1.0 -0.96875q0.484375 -0.40625 0.921875 -0.640625q0.4375 -0.25 0.84375 -0.359375q0.421875 -0.125 0.84375 -0.125q1.03125 0 1.71875 0.359375q0.6875 0.359375 1.109375 0.96875q0.4375 0.59375 0.609375 1.390625q0.1875 0.796875 0.1875 1.6875l0 6.671875zm9.6875 -9.859375q0 0.265625 -0.015625 0.4375q0 0.171875 -0.046875 0.28125q-0.03125 0.09375 -0.078125 0.15625q-0.046875 0.046875 -0.140625 0.046875q-0.09375 0 -0.234375 -0.046875q-0.140625 -0.0625 -0.3125 -0.109375q-0.15625 -0.0625 -0.375 -0.109375q-0.203125 -0.046875 -0.453125 -0.046875q-0.296875 0 -0.578125 0.125q-0.28125 0.109375 -0.59375 0.390625q-0.3125 0.265625 -0.65625 0.71875q-0.328125 0.4375 -0.734375 1.078125l0 6.9375q0 0.09375 -0.046875 0.15625q-0.046875 0.0625 -0.15625 0.125q-0.109375 0.046875 -0.296875 0.0625q-0.1875 0.03125 -0.484375 0.03125q-0.28125 0 -0.46875 -0.03125q-0.1875 -0.015625 -0.296875 -0.0625q-0.109375 -0.0625 -0.15625 -0.125q-0.03125 -0.0625 -0.03125 -0.15625l0 -10.546875q0 -0.09375 0.03125 -0.15625q0.03125 -0.0625 0.140625 -0.109375q0.109375 -0.0625 0.265625 -0.078125q0.171875 -0.015625 0.4375 -0.015625q0.265625 0 0.421875 0.015625q0.171875 0.015625 0.265625 0.078125q0.09375 0.046875 0.140625 0.109375q0.046875 0.0625 0.046875 0.15625l0 1.53125q0.421875 -0.625 0.796875 -1.015625q0.390625 -0.40625 0.734375 -0.625q0.34375 -0.234375 0.671875 -0.328125q0.328125 -0.09375 0.671875 -0.09375q0.15625 0 0.34375 0.03125q0.203125 0.015625 0.40625 0.0625q0.21875 0.046875 0.375 0.109375q0.171875 0.046875 0.234375 0.109375q0.078125 0.0625 0.09375 0.109375q0.03125 0.046875 0.046875 0.140625q0.03125 0.078125 0.03125 0.234375q0 0.15625 0 0.421875zm7.0078125 10.15625l-1.40625 3.875q-0.0625 0.1875 -0.359375 0.28125q-0.28125 0.109375 -0.859375 0.109375q-0.3125 0 -0.5 -0.03125q-0.1875 -0.03125 -0.296875 -0.109375q-0.09375 -0.0625 -0.109375 -0.1875q0 -0.109375 0.0625 -0.265625l1.453125 -3.671875q-0.09375 -0.046875 -0.1875 -0.15625q-0.09375 -0.109375 -0.140625 -0.21875l-3.75 -10.078125q-0.09375 -0.25 -0.09375 -0.390625q0 -0.140625 0.09375 -0.21875q0.09375 -0.078125 0.296875 -0.109375q0.21875 -0.03125 0.5625 -0.03125q0.359375 0 0.546875 0.015625q0.203125 0.015625 0.3125 0.0625q0.125 0.046875 0.171875 0.140625q0.0625 0.078125 0.125 0.234375l3.0 8.46875l0.046875 0l2.90625 -8.515625q0.0625 -0.21875 0.15625 -0.28125q0.109375 -0.0625 0.296875 -0.09375q0.203125 -0.03125 0.578125 -0.03125q0.328125 0 0.53125 0.03125q0.21875 0.03125 0.3125 0.109375q0.109375 0.078125 0.109375 0.21875q0 0.140625 -0.0625 0.359375l-3.796875 10.484375z" fill-rule="nonzero"/><path fill="#4bacc6" d="m299.99875 465.00073l157.5011 0l0 82.50061l-157.5011 0z" fill-rule="evenodd"/><path stroke="#367d90" stroke-width="2.6666666666666665" stroke-linejoin="round" stroke-linecap="butt" d="m299.99875 465.00073l157.5011 0l0 82.50061l-157.5011 0z" fill-rule="evenodd"/><path fill="#ffffff" d="m364.5247 514.4785q0 0.09375 -0.03125 0.171875q-0.03125 0.0625 -0.15625 0.125q-0.109375 0.046875 -0.328125 0.0625q-0.203125 0.03125 -0.5625 0.03125q-0.296875 0 -0.5 -0.03125q-0.1875 -0.015625 -0.3125 -0.0625q-0.109375 -0.0625 -0.171875 -0.15625q-0.0625 -0.09375 -0.109375 -0.234375l-1.390625 -3.578125q-0.25 -0.609375 -0.515625 -1.109375q-0.265625 -0.515625 -0.625 -0.890625q-0.359375 -0.375 -0.859375 -0.578125q-0.484375 -0.203125 -1.1875 -0.203125l-1.34375 0l0 6.453125q0 0.09375 -0.0625 0.171875q-0.046875 0.0625 -0.15625 0.109375q-0.109375 0.046875 -0.3125 0.078125q-0.1875 0.03125 -0.46875 0.03125q-0.296875 0 -0.5 -0.03125q-0.1875 -0.03125 -0.3125 -0.078125q-0.109375 -0.046875 -0.15625 -0.109375q-0.046875 -0.078125 -0.046875 -0.171875l0 -14.03125q0 -0.453125 0.234375 -0.640625q0.25 -0.1875 0.515625 -0.1875l3.21875 0q0.578125 0 0.953125 0.03125q0.390625 0.03125 0.6875 0.0625q0.890625 0.15625 1.5625 0.484375q0.671875 0.328125 1.125 0.84375q0.453125 0.5 0.6875 1.15625q0.234375 0.640625 0.234375 1.421875q0 0.765625 -0.21875 1.375q-0.203125 0.59375 -0.59375 1.0625q-0.375 0.453125 -0.921875 0.796875q-0.53125 0.34375 -1.203125 0.578125q0.375 0.15625 0.671875 0.421875q0.3125 0.25 0.578125 0.609375q0.265625 0.34375 0.5 0.796875q0.234375 0.453125 0.46875 1.03125l1.359375 3.34375q0.15625 0.421875 0.203125 0.59375q0.046875 0.15625 0.046875 0.25zm-3.03125 -10.640625q0 -0.890625 -0.40625 -1.5q-0.390625 -0.625 -1.328125 -0.890625q-0.296875 -0.09375 -0.671875 -0.125q-0.359375 -0.03125 -0.953125 -0.03125l-1.703125 0l0 5.109375l1.96875 0q0.796875 0 1.375 -0.1875q0.578125 -0.203125 0.96875 -0.546875q0.390625 -0.34375 0.5625 -0.8125q0.1875 -0.46875 0.1875 -1.015625zm17.3125 10.234375q0.09375 0.265625 0.09375 0.421875q0.015625 0.15625 -0.078125 0.25q-0.09375 0.078125 -0.3125 0.09375q-0.21875 0.03125 -0.578125 0.03125q-0.375 0 -0.59375 -0.03125q-0.203125 -0.015625 -0.328125 -0.046875q-0.109375 -0.046875 -0.15625 -0.109375q-0.046875 -0.078125 -0.09375 -0.1875l-1.3125 -3.6875l-6.296875 0l-1.25 3.640625q-0.03125 0.109375 -0.09375 0.1875q-0.046875 0.078125 -0.171875 0.140625q-0.109375 0.046875 -0.3125 0.0625q-0.203125 0.03125 -0.53125 0.03125q-0.34375 0 -0.5625 -0.03125q-0.203125 -0.03125 -0.296875 -0.109375q-0.09375 -0.09375 -0.09375 -0.25q0.015625 -0.15625 0.109375 -0.421875l5.09375 -14.078125q0.046875 -0.125 0.109375 -0.203125q0.078125 -0.09375 0.21875 -0.140625q0.15625 -0.046875 0.375 -0.0625q0.234375 -0.015625 0.59375 -0.015625q0.375 0 0.609375 0.015625q0.25 0.015625 0.40625 0.0625q0.15625 0.046875 0.234375 0.140625q0.078125 0.078125 0.125 0.21875l5.09375 14.078125zm-6.53125 -12.4375l-0.015625 0l-2.609375 7.5625l5.28125 0l-2.65625 -7.5625zm15.183594 12.796875q-0.046875 0.140625 -0.125 0.21875q-0.078125 0.078125 -0.234375 0.125q-0.140625 0.046875 -0.375 0.0625q-0.21875 0.03125 -0.5625 0.03125q-0.25 0 -0.453125 -0.015625q-0.1875 0 -0.328125 -0.03125q-0.140625 -0.015625 -0.25 -0.046875q-0.09375 -0.03125 -0.171875 -0.078125q-0.0625 -0.046875 -0.109375 -0.109375q-0.03125 -0.0625 -0.0625 -0.15625l-4.96875 -14.09375q-0.09375 -0.25 -0.09375 -0.40625q0 -0.171875 0.09375 -0.25q0.109375 -0.078125 0.34375 -0.09375q0.234375 -0.03125 0.640625 -0.03125q0.328125 0 0.515625 0.015625q0.1875 0.015625 0.296875 0.0625q0.109375 0.046875 0.15625 0.125q0.0625 0.078125 0.109375 0.1875l4.34375 12.765625l0.015625 0l4.21875 -12.734375q0.046875 -0.125 0.09375 -0.203125q0.046875 -0.09375 0.15625 -0.140625q0.125 -0.046875 0.328125 -0.0625q0.21875 -0.015625 0.5625 -0.015625q0.359375 0 0.5625 0.03125q0.21875 0.03125 0.296875 0.109375q0.078125 0.078125 0.0625 0.234375q-0.015625 0.15625 -0.109375 0.421875l-4.953125 14.078125zm16.945312 -3.953125q0 0.390625 -0.125 0.609375q-0.109375 0.21875 -0.3125 0.21875l-1.71875 0l0 3.1875q0 0.09375 -0.046875 0.15625q-0.046875 0.0625 -0.171875 0.125q-0.109375 0.046875 -0.296875 0.0625q-0.1875 0.03125 -0.46875 0.03125q-0.28125 0 -0.46875 -0.03125q-0.1875 -0.015625 -0.3125 -0.0625q-0.109375 -0.0625 -0.15625 -0.125q-0.03125 -0.0625 -0.03125 -0.15625l0 -3.1875l-6.25 0q-0.140625 0 -0.234375 -0.03125q-0.09375 -0.03125 -0.171875 -0.125q-0.078125 -0.09375 -0.109375 -0.265625q-0.03125 -0.1875 -0.03125 -0.46875q0 -0.21875 0.015625 -0.390625q0.015625 -0.1875 0.046875 -0.328125q0.03125 -0.140625 0.09375 -0.28125q0.0625 -0.140625 0.140625 -0.28125l5.453125 -9.21875q0.0625 -0.09375 0.171875 -0.15625q0.109375 -0.078125 0.28125 -0.125q0.1875 -0.046875 0.4375 -0.0625q0.265625 -0.015625 0.609375 -0.015625q0.390625 0 0.671875 0.03125q0.296875 0.03125 0.46875 0.078125q0.171875 0.046875 0.265625 0.125q0.09375 0.0625 0.09375 0.171875l0 9.6875l1.71875 0q0.203125 0 0.3125 0.203125q0.125 0.203125 0.125 0.625zm-4.109375 -9.15625l-0.015625 0l-4.9375 8.328125l4.953125 0l0 -8.328125z" fill-rule="nonzero"/><path fill="#9bbb59" d="m600.0008 277.49942l225.00159 0l0 82.50058l-225.00159 0z" fill-rule="evenodd"/><path stroke="#718840" stroke-width="2.6666666666666665" stroke-linejoin="round" stroke-linecap="butt" d="m600.0008 277.49942l225.00159 0l0 82.50058l-225.00159 0z" fill-rule="evenodd"/><path fill="#ffffff" d="m697.0543 322.94595q0 0.703125 -0.1875 1.3125q-0.171875 0.609375 -0.5 1.09375q-0.328125 0.46875 -0.796875 0.84375q-0.46875 0.359375 -1.046875 0.609375q-0.578125 0.234375 -1.25 0.359375q-0.65625 0.125 -1.5 0.125l-3.96875 0q-0.265625 0 -0.515625 -0.171875q-0.234375 -0.1875 -0.234375 -0.65625l0 -13.515625q0 -0.453125 0.234375 -0.640625q0.25 -0.1875 0.515625 -0.1875l3.453125 0q1.359375 0 2.21875 0.265625q0.875 0.25 1.453125 0.75q0.578125 0.484375 0.859375 1.203125q0.296875 0.71875 0.296875 1.625q0 0.53125 -0.125 1.03125q-0.125 0.484375 -0.375 0.90625q-0.25 0.40625 -0.640625 0.734375q-0.375 0.328125 -0.875 0.546875q0.625 0.109375 1.15625 0.421875q0.546875 0.3125 0.953125 0.796875q0.40625 0.484375 0.640625 1.125q0.234375 0.640625 0.234375 1.421875zm-3.03125 -6.796875q0 -0.546875 -0.15625 -0.984375q-0.15625 -0.453125 -0.484375 -0.765625q-0.328125 -0.3125 -0.859375 -0.46875q-0.515625 -0.171875 -1.390625 -0.171875l-2.078125 0l0 4.921875l2.296875 0q0.78125 0 1.25 -0.203125q0.484375 -0.21875 0.796875 -0.5625q0.328125 -0.34375 0.46875 -0.796875q0.15625 -0.46875 0.15625 -0.96875zm0.90625 6.90625q0 -0.671875 -0.21875 -1.1875q-0.21875 -0.515625 -0.640625 -0.859375q-0.40625 -0.359375 -1.03125 -0.546875q-0.625 -0.1875 -1.578125 -0.1875l-2.40625 0l0 5.34375l2.921875 0q0.6875 0 1.203125 -0.15625q0.515625 -0.171875 0.90625 -0.484375q0.40625 -0.328125 0.625 -0.796875q0.21875 -0.484375 0.21875 -1.125zm21.664062 3.921875q0 0.09375 -0.046875 0.171875q-0.046875 0.0625 -0.171875 0.109375q-0.109375 0.046875 -0.296875 0.078125q-0.171875 0.03125 -0.46875 0.03125q-0.265625 0 -0.46875 -0.03125q-0.1875 -0.03125 -0.296875 -0.078125q-0.109375 -0.046875 -0.15625 -0.109375q-0.046875 -0.078125 -0.046875 -0.171875l0 -13.203125l-0.015625 0l-5.40625 13.265625q-0.03125 0.078125 -0.109375 0.140625q-0.0625 0.0625 -0.1875 0.109375q-0.109375 0.03125 -0.28125 0.046875q-0.171875 0.03125 -0.40625 0.03125q-0.25 0 -0.421875 -0.03125q-0.171875 -0.015625 -0.296875 -0.0625q-0.109375 -0.046875 -0.1875 -0.09375q-0.0625 -0.0625 -0.078125 -0.140625l-5.171875 -13.265625l-0.015625 0l0 13.203125q0 0.09375 -0.046875 0.171875q-0.046875 0.0625 -0.171875 0.109375q-0.109375 0.046875 -0.296875 0.078125q-0.1875 0.03125 -0.46875 0.03125q-0.28125 0 -0.46875 -0.03125q-0.1875 -0.03125 -0.3125 -0.078125q-0.109375 -0.046875 -0.15625 -0.109375q-0.03125 -0.078125 -0.03125 -0.171875l0 -13.9375q0 -0.5 0.25 -0.703125q0.265625 -0.21875 0.578125 -0.21875l1.21875 0q0.375 0 0.65625 0.078125q0.28125 0.0625 0.484375 0.21875q0.21875 0.15625 0.359375 0.390625q0.140625 0.234375 0.25 0.546875l4.390625 10.984375l0.0625 0l4.578125 -10.953125q0.125 -0.34375 0.265625 -0.59375q0.15625 -0.25 0.34375 -0.390625q0.1875 -0.140625 0.40625 -0.203125q0.21875 -0.078125 0.515625 -0.078125l1.28125 0q0.171875 0 0.328125 0.0625q0.15625 0.046875 0.265625 0.15625q0.109375 0.109375 0.171875 0.28125q0.078125 0.171875 0.078125 0.421875l0 13.9375zm18.550781 -0.140625q-0.046875 0.171875 -0.140625 0.28125q-0.09375 0.09375 -0.265625 0.15625q-0.15625 0.046875 -0.390625 0.0625q-0.234375 0.03125 -0.59375 0.03125q-0.359375 0 -0.609375 -0.03125q-0.25 -0.015625 -0.421875 -0.0625q-0.15625 -0.0625 -0.25 -0.15625q-0.078125 -0.109375 -0.125 -0.28125l-3.171875 -11.4375l-0.03125 0l-2.921875 11.4375q-0.03125 0.171875 -0.125 0.28125q-0.078125 0.09375 -0.234375 0.15625q-0.140625 0.046875 -0.390625 0.0625q-0.234375 0.03125 -0.609375 0.03125q-0.390625 0 -0.65625 -0.03125q-0.25 -0.015625 -0.421875 -0.0625q-0.15625 -0.0625 -0.25 -0.15625q-0.078125 -0.109375 -0.109375 -0.28125l-4.015625 -14.0q-0.0625 -0.265625 -0.078125 -0.421875q0 -0.15625 0.09375 -0.234375q0.109375 -0.078125 0.328125 -0.09375q0.21875 -0.03125 0.59375 -0.03125q0.359375 0 0.5625 0.015625q0.21875 0.015625 0.328125 0.0625q0.125 0.046875 0.15625 0.140625q0.046875 0.078125 0.0625 0.203125l3.421875 12.703125l0 0l3.234375 -12.6875q0.046875 -0.125 0.09375 -0.203125q0.046875 -0.09375 0.15625 -0.140625q0.125 -0.046875 0.34375 -0.0625q0.21875 -0.03125 0.578125 -0.03125q0.328125 0 0.515625 0.03125q0.1875 0.015625 0.296875 0.0625q0.125 0.046875 0.171875 0.140625q0.0625 0.078125 0.09375 0.203125l3.484375 12.6875l0.03125 0l3.328125 -12.6875q0.046875 -0.125 0.078125 -0.203125q0.03125 -0.09375 0.140625 -0.140625q0.109375 -0.046875 0.3125 -0.0625q0.21875 -0.03125 0.546875 -0.03125q0.359375 0 0.5625 0.03125q0.203125 0.03125 0.296875 0.109375q0.09375 0.078125 0.078125 0.234375q0 0.15625 -0.046875 0.421875l-4.03125 13.984375z" fill-rule="nonzero"/><path fill="#4bacc6" d="m495.00012 465.00073l157.5011 0l0 82.50061l-157.5011 0z" fill-rule="evenodd"/><path stroke="#367d90" stroke-width="2.6666666666666665" stroke-linejoin="round" stroke-linecap="butt" d="m495.00012 465.00073l157.5011 0l0 82.50061l-157.5011 0z" fill-rule="evenodd"/><path fill="#ffffff" d="m573.112 514.05664q0.15625 0.265625 0.1875 0.421875q0.03125 0.140625 -0.078125 0.234375q-0.109375 0.09375 -0.359375 0.125q-0.234375 0.03125 -0.625 0.03125q-0.375 0 -0.59375 -0.03125q-0.203125 -0.015625 -0.328125 -0.0625q-0.125 -0.046875 -0.1875 -0.109375q-0.0625 -0.0625 -0.109375 -0.171875l-3.375 -6.03125l-3.40625 6.03125q-0.0625 0.109375 -0.140625 0.1875q-0.0625 0.0625 -0.1875 0.109375q-0.125 0.03125 -0.34375 0.046875q-0.203125 0.03125 -0.546875 0.03125q-0.390625 0 -0.625 -0.03125q-0.21875 -0.03125 -0.3125 -0.125q-0.078125 -0.09375 -0.046875 -0.234375q0.03125 -0.15625 0.1875 -0.421875l4.125 -6.96875l-3.9375 -6.734375q-0.140625 -0.265625 -0.1875 -0.421875q-0.046875 -0.15625 0.046875 -0.234375q0.09375 -0.09375 0.328125 -0.109375q0.234375 -0.03125 0.65625 -0.03125q0.34375 0 0.5625 0.015625q0.234375 0.015625 0.359375 0.0625q0.125 0.03125 0.1875 0.109375q0.0625 0.078125 0.125 0.171875l3.265625 5.671875l3.234375 -5.671875q0.046875 -0.09375 0.109375 -0.171875q0.0625 -0.078125 0.171875 -0.109375q0.109375 -0.046875 0.3125 -0.0625q0.203125 -0.015625 0.53125 -0.015625q0.375 0 0.59375 0.03125q0.234375 0.03125 0.328125 0.109375q0.109375 0.078125 0.078125 0.234375q-0.015625 0.15625 -0.15625 0.421875l-3.9375 6.6875l4.09375 7.015625zm11.550781 -4.140625q0 1.21875 -0.421875 2.171875q-0.40625 0.9375 -1.15625 1.59375q-0.75 0.65625 -1.796875 1.0q-1.03125 0.328125 -2.296875 0.328125q-0.703125 0 -1.34375 -0.09375q-0.625 -0.09375 -1.125 -0.234375q-0.484375 -0.15625 -0.796875 -0.296875q-0.3125 -0.140625 -0.40625 -0.21875q-0.078125 -0.09375 -0.125 -0.15625q-0.03125 -0.078125 -0.0625 -0.171875q-0.03125 -0.109375 -0.046875 -0.25q0 -0.15625 0 -0.375q0 -0.1875 0.015625 -0.34375q0.015625 -0.171875 0.0625 -0.265625q0.046875 -0.09375 0.109375 -0.140625q0.0625 -0.046875 0.15625 -0.046875q0.109375 0 0.359375 0.140625q0.25 0.140625 0.65625 0.3125q0.421875 0.171875 1.03125 0.328125q0.625 0.15625 1.46875 0.15625q0.78125 0 1.4375 -0.1875q0.65625 -0.1875 1.125 -0.578125q0.484375 -0.40625 0.75 -1.015625q0.265625 -0.609375 0.265625 -1.46875q0 -0.734375 -0.234375 -1.28125q-0.21875 -0.5625 -0.703125 -0.921875q-0.46875 -0.375 -1.203125 -0.546875q-0.71875 -0.1875 -1.71875 -0.1875q-0.71875 0 -1.234375 0.078125q-0.515625 0.0625 -0.96875 0.0625q-0.328125 0 -0.46875 -0.15625q-0.140625 -0.15625 -0.140625 -0.59375l0 -6.171875q0 -0.390625 0.1875 -0.578125q0.1875 -0.1875 0.515625 -0.1875l6.71875 0q0.09375 0 0.171875 0.0625q0.09375 0.046875 0.15625 0.15625q0.0625 0.109375 0.09375 0.28125q0.03125 0.15625 0.03125 0.375q0 0.421875 -0.125 0.65625q-0.109375 0.234375 -0.328125 0.234375l-5.65625 0l0 4.25q0.40625 -0.0625 0.828125 -0.0625q0.4375 -0.015625 1.0 -0.015625q1.296875 0 2.265625 0.3125q0.984375 0.3125 1.625 0.875q0.65625 0.5625 0.984375 1.375q0.34375 0.8125 0.34375 1.796875z" fill-rule="nonzero"/><path fill="#4bacc6" d="m780.00214 465.00073l165.00116 0l0 82.50061l-165.00116 0z" fill-rule="evenodd"/><path stroke="#367d90" stroke-width="2.6666666666666665" stroke-linejoin="round" stroke-linecap="butt" d="m780.00214 465.00073l165.00116 0l0 82.50061l-165.00116 0z" fill-rule="evenodd"/><path fill="#ffffff" d="m861.864 514.05664q0.15625 0.265625 0.1875 0.421875q0.03125 0.140625 -0.078125 0.234375q-0.109375 0.09375 -0.359375 0.125q-0.234375 0.03125 -0.625 0.03125q-0.375 0 -0.59375 -0.03125q-0.203125 -0.015625 -0.328125 -0.0625q-0.125 -0.046875 -0.1875 -0.109375q-0.0625 -0.0625 -0.109375 -0.171875l-3.375 -6.03125l-3.40625 6.03125q-0.0625 0.109375 -0.140625 0.1875q-0.0625 0.0625 -0.1875 0.109375q-0.125 0.03125 -0.34375 0.046875q-0.203125 0.03125 -0.546875 0.03125q-0.390625 0 -0.625 -0.03125q-0.21875 -0.03125 -0.3125 -0.125q-0.078125 -0.09375 -0.046875 -0.234375q0.03125 -0.15625 0.1875 -0.421875l4.125 -6.96875l-3.9375 -6.734375q-0.140625 -0.265625 -0.1875 -0.421875q-0.046875 -0.15625 0.046875 -0.234375q0.09375 -0.09375 0.328125 -0.109375q0.234375 -0.03125 0.65625 -0.03125q0.34375 0 0.5625 0.015625q0.234375 0.015625 0.359375 0.0625q0.125 0.03125 0.1875 0.109375q0.0625 0.078125 0.125 0.171875l3.265625 5.671875l3.234375 -5.671875q0.046875 -0.09375 0.109375 -0.171875q0.0625 -0.078125 0.171875 -0.109375q0.109375 -0.046875 0.3125 -0.0625q0.203125 -0.015625 0.53125 -0.015625q0.375 0 0.59375 0.03125q0.234375 0.03125 0.328125 0.109375q0.109375 0.078125 0.078125 0.234375q-0.015625 0.15625 -0.15625 0.421875l-3.9375 6.6875l4.09375 7.015625zm12.003906 -4.171875q0 0.984375 -0.3125 1.921875q-0.296875 0.9375 -0.9375 1.640625q-0.625 0.703125 -1.609375 1.140625q-0.96875 0.421875 -2.28125 0.421875q-0.953125 0 -1.6875 -0.234375q-0.71875 -0.234375 -1.265625 -0.65625q-0.53125 -0.4375 -0.890625 -1.0625q-0.359375 -0.640625 -0.578125 -1.453125q-0.21875 -0.8125 -0.3125 -1.765625q-0.09375 -0.96875 -0.09375 -2.0625q0 -0.984375 0.109375 -1.96875q0.109375 -1.0 0.375 -1.921875q0.265625 -0.9375 0.734375 -1.75q0.46875 -0.8125 1.15625 -1.40625q0.703125 -0.609375 1.671875 -0.953125q0.96875 -0.359375 2.265625 -0.359375q0.4375 0 0.875 0.0625q0.453125 0.046875 0.828125 0.140625q0.375 0.078125 0.625 0.1875q0.265625 0.09375 0.34375 0.171875q0.078125 0.0625 0.109375 0.140625q0.046875 0.0625 0.0625 0.15625q0.03125 0.09375 0.046875 0.203125q0.015625 0.109375 0.015625 0.265625q0 0.21875 -0.015625 0.375q0 0.140625 -0.046875 0.234375q-0.03125 0.09375 -0.09375 0.140625q-0.0625 0.046875 -0.171875 0.046875q-0.125 0 -0.359375 -0.078125q-0.21875 -0.078125 -0.53125 -0.171875q-0.3125 -0.109375 -0.765625 -0.1875q-0.453125 -0.078125 -1.046875 -0.078125q-1.09375 0 -1.890625 0.453125q-0.78125 0.4375 -1.28125 1.1875q-0.484375 0.75 -0.734375 1.734375q-0.234375 0.984375 -0.265625 2.0625q0.296875 -0.171875 0.671875 -0.34375q0.390625 -0.171875 0.84375 -0.3125q0.453125 -0.140625 0.953125 -0.234375q0.5 -0.09375 1.078125 -0.09375q1.234375 0 2.078125 0.34375q0.84375 0.328125 1.359375 0.921875q0.515625 0.59375 0.734375 1.40625q0.234375 0.796875 0.234375 1.734375zm-2.046875 0.1875q0 -0.6875 -0.140625 -1.234375q-0.125 -0.5625 -0.4375 -0.953125q-0.3125 -0.390625 -0.84375 -0.59375q-0.53125 -0.21875 -1.296875 -0.21875q-0.4375 0 -0.875 0.078125q-0.4375 0.078125 -0.84375 0.21875q-0.390625 0.125 -0.765625 0.3125q-0.375 0.1875 -0.671875 0.390625q0 1.515625 0.1875 2.53125q0.203125 1.015625 0.5625 1.640625q0.375 0.609375 0.921875 0.875q0.546875 0.265625 1.296875 0.265625q0.75 0 1.296875 -0.28125q0.546875 -0.28125 0.90625 -0.75q0.375 -0.484375 0.53125 -1.078125q0.171875 -0.59375 0.171875 -1.203125z" fill-rule="nonzero"/><path fill="#000000" fill-opacity="0.0" d="m449.9998 194.99886l-202.48819 82.488174" fill-rule="evenodd"/><path stroke="#f5913f" stroke-width="1.0" stroke-linejoin="round" stroke-linecap="butt" d="m449.9998 194.99886l-199.31433 81.19524" fill-rule="evenodd"/><path fill="#f5913f" stroke="#f5913f" stroke-width="1.0" stroke-linecap="butt" d="m250.68544 276.1941l0.617218 -1.4657288l-2.4371796 2.2071533l3.2857208 -0.12420654z" fill-rule="evenodd"/><path fill="#000000" fill-opacity="0.0" d="m449.9998 194.99886l262.4882 82.488174" fill-rule="evenodd"/><path stroke="#f5913f" stroke-width="1.0" stroke-linejoin="round" stroke-linecap="butt" d="m449.9998 194.99886l259.21872 81.46074" fill-rule="evenodd"/><path fill="#f5913f" stroke="#f5913f" stroke-width="1.0" stroke-linecap="butt" d="m709.2185 276.4596l-1.4100342 0.7357178l3.28479 -0.14654541l-2.6104736 -1.999176z" fill-rule="evenodd"/><path fill="#000000" fill-opacity="0.0" d="m247.49837 360.0l-142.48819 105.00787" fill-rule="evenodd"/><path stroke="#f5913f" stroke-width="1.0" stroke-linejoin="round" stroke-linecap="butt" d="m247.49838 360.0l-139.72937 102.97473" fill-rule="evenodd"/><path fill="#f5913f" stroke="#f5913f" stroke-width="1.0" stroke-linecap="butt" d="m107.76902 462.97473l0.23813629 -1.5724792l-1.8201294 2.7383423l3.1544724 -0.9277344z" fill-rule="evenodd"/><path fill="#000000" fill-opacity="0.0" d="m247.49837 360.0l131.2441 105.00787" fill-rule="evenodd"/><path stroke="#f5913f" stroke-width="1.0" stroke-linejoin="round" stroke-linecap="butt" d="m247.49838 360.0l128.56808 102.86685" fill-rule="evenodd"/><path fill="#f5913f" stroke="#f5913f" stroke-width="1.0" stroke-linecap="butt" d="m376.06647 462.86682l-1.5806885 0.17553711l3.1151733 1.0522156l-1.710022 -2.8084106z" fill-rule="evenodd"/><path fill="#000000" fill-opacity="0.0" d="m712.5016 360.0l-138.74011 105.00787" fill-rule="evenodd"/><path stroke="#f5913f" stroke-width="1.0" stroke-linejoin="round" stroke-linecap="butt" d="m712.50165 360.0l-136.00757 102.93964" fill-rule="evenodd"/><path fill="#f5913f" stroke="#f5913f" stroke-width="1.0" stroke-linecap="butt" d="m576.4941 462.93964l0.21801758 -1.5753784l-1.7849731 2.7613525l3.142334 -0.96795654z" fill-rule="evenodd"/><path fill="#000000" fill-opacity="0.0" d="m712.5016 360.0l150.01575 105.00787" fill-rule="evenodd"/><path stroke="#f5913f" stroke-width="1.0" stroke-linejoin="round" stroke-linecap="butt" d="m712.50165 360.0l147.20819 103.0426" fill-rule="evenodd"/><path fill="#f5913f" stroke="#f5913f" stroke-width="1.0" stroke-linecap="butt" d="m859.7098 463.0426l-1.5662231 0.27642822l3.1762085 0.8505249l-1.8864136 -2.6931458z" fill-rule="evenodd"/></g></svg>