<svg version="1.1" viewBox="0.0 0.0 960.0 720.0" fill="none" stroke="none" stroke-linecap="square" stroke-miterlimit="10" xmlns:xlink="http://www.w3.org/1999/xlink" xmlns="http://www.w3.org/2000/svg"><clipPath id="p3.0"><path d="m0 0l960.0 0l0 720.0l-960.0 0l0 -720.0z" clip-rule="nonzero"/></clipPath><g clip-path="url(#p3.0)"><path fill="#ffffff" d="m0 0l960.0 0l0 720.0l-960.0 0z" fill-rule="evenodd"/><path fill="#4f81bd" d="m67.497116 188.74973l0 0c0 -25.543854 20.70739 -46.251236 46.251244 -46.251236l184.99945 0l0 0c12.266602 0 24.030792 4.872879 32.70456 13.546677c8.673798 8.673782 13.546692 20.437973 13.546692 32.70456l0 252.49994c0 25.543854 -20.707397 46.25125 -46.25125 46.25125l-184.99945 0c-25.543854 0 -46.251244 -20.707397 -46.251244 -46.25125z" fill-rule="evenodd"/><path stroke="#395e89" stroke-width="2.6666666666666665" stroke-linejoin="round" stroke-linecap="butt" d="m67.497116 188.74973l0 0c0 -25.543854 20.70739 -46.251236 46.251244 -46.251236l184.99945 0l0 0c12.266602 0 24.030792 4.872879 32.70456 13.546677c8.673798 8.673782 13.546692 20.437973 13.546692 32.70456l0 252.49994c0 25.543854 -20.707397 46.25125 -46.25125 46.25125l-184.99945 0c-25.543854 0 -46.251244 -20.707397 -46.251244 -46.25125z" fill-rule="evenodd"/><path fill="#ffffff" d="m166.67776 349.85217l2.265625 0l0 7.53125q1.5625 0 2.1875 -0.59375q0.640625 -0.609375 1.625 -2.90625q0.71875 -1.6875 1.171875 -2.390625q0.46875 -0.703125 1.328125 -1.171875q0.859375 -0.46875 1.890625 -0.46875q1.3125 0 1.375 0.015625l0 1.96875q-0.109375 0 -0.453125 -0.015625q-0.375 0 -0.453125 0q-1.09375 0 -1.625 0.515625q-0.53125 0.53125 -1.234375 2.25q-0.859375 2.1875 -1.46875 2.765625q-0.59375 0.5625 -1.421875 0.890625q1.671875 0.46875 3.28125 3.078125l3.546875 5.71875l-2.828125 0l-2.875 -4.671875q-1.1875 -1.921875 -1.984375 -2.640625q-0.796875 -0.734375 -2.0625 -0.734375l0 8.046875l-2.265625 0l0 -17.1875zm14.699219 4.734375l9.796875 0l0 12.453125l-2.09375 0l0 -10.703125l-5.59375 0l0 6.203125q0 2.171875 -0.140625 2.859375q-0.140625 0.6875 -0.78125 1.203125q-0.625 0.515625 -1.8125 0.515625q-0.734375 0 -1.703125 -0.09375l0 -1.75l0.921875 0q0.65625 0 0.9375 -0.140625q0.28125 -0.140625 0.375 -0.421875q0.09375 -0.296875 0.09375 -1.921875l0 -8.203125zm21.097656 10.921875q-1.171875 0.984375 -2.265625 1.40625q-1.078125 0.40625 -2.3125 0.40625q-2.046875 0 -3.15625 -1.0q-1.09375 -1.0 -1.09375 -2.5625q0 -0.921875 0.40625 -1.671875q0.421875 -0.75 1.09375 -1.203125q0.671875 -0.46875 1.515625 -0.703125q0.625 -0.15625 1.875 -0.3125q2.5625 -0.3125 3.765625 -0.734375q0.015625 -0.421875 0.015625 -0.546875q0 -1.28125 -0.609375 -1.8125q-0.796875 -0.71875 -2.390625 -0.71875q-1.5 0 -2.203125 0.53125q-0.703125 0.515625 -1.046875 1.84375l-2.0625 -0.28125q0.28125 -1.328125 0.921875 -2.140625q0.640625 -0.8125 1.859375 -1.25q1.21875 -0.453125 2.828125 -0.453125q1.59375 0 2.59375 0.375q1.0 0.375 1.46875 0.953125q0.46875 0.5625 0.65625 1.4375q0.09375 0.53125 0.09375 1.9375l0 2.8125q0 2.9375 0.140625 3.71875q0.140625 0.78125 0.53125 1.5l-2.203125 0q-0.328125 -0.65625 -0.421875 -1.53125zm-0.171875 -4.71875q-1.15625 0.46875 -3.453125 0.796875q-1.296875 0.1875 -1.84375 0.421875q-0.53125 0.234375 -0.828125 0.6875q-0.28125 0.453125 -0.28125 1.0q0 0.84375 0.625 1.40625q0.640625 0.5625 1.875 0.5625q1.21875 0 2.171875 -0.53125q0.953125 -0.53125 1.390625 -1.453125q0.34375 -0.71875 0.34375 -2.109375l0 -0.78125zm13.519531 1.6875l2.078125 0.265625q-0.34375 2.15625 -1.75 3.375q-1.390625 1.203125 -3.4375 1.203125q-2.546875 0 -4.109375 -1.671875q-1.546875 -1.671875 -1.546875 -4.78125q0 -2.015625 0.671875 -3.53125q0.671875 -1.515625 2.03125 -2.265625q1.359375 -0.765625 2.96875 -0.765625q2.03125 0 3.3125 1.03125q1.296875 1.03125 1.65625 2.90625l-2.046875 0.328125q-0.296875 -1.265625 -1.046875 -1.890625q-0.734375 -0.640625 -1.796875 -0.640625q-1.59375 0 -2.59375 1.15625q-0.984375 1.140625 -0.984375 3.609375q0 2.5 0.953125 3.640625q0.96875 1.140625 2.515625 1.140625q1.234375 0 2.0625 -0.765625q0.84375 -0.765625 1.0625 -2.34375zm12.0 0l2.078125 0.265625q-0.34375 2.15625 -1.75 3.375q-1.390625 1.203125 -3.4375 1.203125q-2.546875 0 -4.109375 -1.671875q-1.546875 -1.671875 -1.546875 -4.78125q0 -2.015625 0.671875 -3.53125q0.671875 -1.515625 2.03125 -2.265625q1.359375 -0.765625 2.96875 -0.765625q2.03125 0 3.3125 1.03125q1.296875 1.03125 1.65625 2.90625l-2.046875 0.328125q-0.296875 -1.265625 -1.046875 -1.890625q-0.734375 -0.640625 -1.796875 -0.640625q-1.59375 0 -2.59375 1.15625q-0.984375 1.140625 -0.984375 3.609375q0 2.5 0.953125 3.640625q0.96875 1.140625 2.515625 1.140625q1.234375 0 2.0625 -0.765625q0.84375 -0.765625 1.0625 -2.34375z" fill-rule="nonzero"/><path fill="#ffffff" d="m246.40433 366.2428q0 0.21875 -0.03125 0.375q-0.03125 0.15625 -0.09375 0.25q-0.0625 0.09375 -0.140625 0.140625q-0.0625 0.03125 -0.15625 0.03125l-7.921875 0q-0.078125 0 -0.15625 -0.03125q-0.0625 -0.046875 -0.125 -0.140625q-0.0625 -0.09375 -0.109375 -0.25q-0.03125 -0.15625 -0.03125 -0.375q0 -0.21875 0.03125 -0.359375q0.046875 -0.15625 0.09375 -0.25q0.0625 -0.109375 0.125 -0.15625q0.078125 -0.0625 0.171875 -0.0625l3.171875 0l0 -11.53125l-2.9375 1.75q-0.21875 0.125 -0.359375 0.15625q-0.125 0.015625 -0.21875 -0.0625q-0.078125 -0.078125 -0.109375 -0.25q-0.015625 -0.1875 -0.015625 -0.453125q0 -0.203125 0.015625 -0.34375q0.015625 -0.140625 0.046875 -0.234375q0.03125 -0.09375 0.09375 -0.15625q0.078125 -0.078125 0.171875 -0.140625l3.5 -2.234375q0.046875 -0.046875 0.109375 -0.0625q0.078125 -0.03125 0.171875 -0.046875q0.109375 -0.03125 0.25 -0.03125q0.140625 0 0.359375 0q0.28125 0 0.46875 0.03125q0.1875 0.015625 0.28125 0.0625q0.109375 0.03125 0.140625 0.09375q0.046875 0.0625 0.046875 0.140625l0 13.3125l2.734375 0q0.09375 0 0.171875 0.0625q0.09375 0.046875 0.140625 0.15625q0.0625 0.09375 0.078125 0.25q0.03125 0.140625 0.03125 0.359375z" fill-rule="nonzero"/><path fill="#4f81bd" d="m600.0008 188.74973l0 0c0 -25.543854 20.707397 -46.251236 46.25128 -46.251236l184.99945 0l0 0c12.266602 0 24.030762 4.872879 32.70453 13.546677c8.673828 8.673782 13.546692 20.437973 13.546692 32.70456l0 252.49994c0 25.543854 -20.707397 46.25125 -46.25122 46.25125l-184.99945 0c-25.543884 0 -46.25128 -20.707397 -46.25128 -46.25125z" fill-rule="evenodd"/><path stroke="#395e89" stroke-width="2.6666666666666665" stroke-linejoin="round" stroke-linecap="butt" d="m600.0008 188.74973l0 0c0 -25.543854 20.707397 -46.251236 46.25128 -46.251236l184.99945 0l0 0c12.266602 0 24.030762 4.872879 32.70453 13.546677c8.673828 8.673782 13.546692 20.437973 13.546692 32.70456l0 252.49994c0 25.543854 -20.707397 46.25125 -46.25122 46.25125l-184.99945 0c-25.543884 0 -46.25128 -20.707397 -46.25128 -46.25125z" fill-rule="evenodd"/><path fill="#ffffff" d="m699.18146 306.35217l2.265625 0l0 7.53125q1.5625 0 2.1875 -0.59375q0.640625 -0.609375 1.625 -2.90625q0.71875 -1.6875 1.171875 -2.390625q0.46875 -0.703125 1.328125 -1.171875q0.859375 -0.46875 1.890625 -0.46875q1.3125 0 1.375 0.015625l0 1.96875q-0.109375 0 -0.453125 -0.015625q-0.375 0 -0.453125 0q-1.09375 0 -1.625 0.515625q-0.53125 0.53125 -1.234375 2.25q-0.859375 2.1875 -1.46875 2.765625q-0.59375 0.5625 -1.421875 0.890625q1.671875 0.46875 3.28125 3.078125l3.546875 5.71875l-2.828125 0l-2.875 -4.671875q-1.1875 -1.921875 -1.984375 -2.640625q-0.796875 -0.734375 -2.0625 -0.734375l0 8.046875l-2.265625 0l0 -17.1875zm14.699219 4.734375l9.796875 0l0 12.453125l-2.09375 0l0 -10.703125l-5.59375 0l0 6.203125q0 2.171875 -0.140625 2.859375q-0.140625 0.6875 -0.78125 1.203125q-0.625 0.515625 -1.8125 0.515625q-0.734375 0 -1.703125 -0.09375l0 -1.75l0.921875 0q0.65625 0 0.9375 -0.140625q0.28125 -0.140625 0.375 -0.421875q0.09375 -0.296875 0.09375 -1.921875l0 -8.203125zm21.097656 10.921875q-1.171875 0.984375 -2.265625 1.40625q-1.078125 0.40625 -2.3125 0.40625q-2.046875 0 -3.15625 -1.0q-1.09375 -1.0 -1.09375 -2.5625q0 -0.921875 0.40625 -1.671875q0.421875 -0.75 1.09375 -1.203125q0.671875 -0.46875 1.515625 -0.703125q0.625 -0.15625 1.875 -0.3125q2.5625 -0.3125 3.765625 -0.734375q0.015625 -0.421875 0.015625 -0.546875q0 -1.28125 -0.609375 -1.8125q-0.796875 -0.71875 -2.390625 -0.71875q-1.5 0 -2.203125 0.53125q-0.703125 0.515625 -1.046875 1.84375l-2.0625 -0.28125q0.28125 -1.328125 0.921875 -2.140625q0.640625 -0.8125 1.859375 -1.25q1.21875 -0.453125 2.828125 -0.453125q1.59375 0 2.59375 0.375q1.0 0.375 1.46875 0.953125q0.46875 0.5625 0.65625 1.4375q0.09375 0.53125 0.09375 1.9375l0 2.8125q0 2.9375 0.140625 3.71875q0.140625 0.78125 0.53125 1.5l-2.203125 0q-0.328125 -0.65625 -0.421875 -1.53125zm-0.171875 -4.71875q-1.15625 0.46875 -3.453125 0.796875q-1.296875 0.1875 -1.84375 0.421875q-0.53125 0.234375 -0.828125 0.6875q-0.28125 0.453125 -0.28125 1.0q0 0.84375 0.625 1.40625q0.640625 0.5625 1.875 0.5625q1.21875 0 2.171875 -0.53125q0.953125 -0.53125 1.390625 -1.453125q0.34375 -0.71875 0.34375 -2.109375l0 -0.78125zm13.519531 1.6875l2.078125 0.265625q-0.34375 2.15625 -1.75 3.375q-1.390625 1.203125 -3.4375 1.203125q-2.546875 0 -4.109375 -1.671875q-1.546875 -1.671875 -1.546875 -4.78125q0 -2.015625 0.671875 -3.53125q0.671875 -1.515625 2.03125 -2.265625q1.359375 -0.765625 2.96875 -0.765625q2.03125 0 3.3125 1.03125q1.296875 1.03125 1.65625 2.90625l-2.046875 0.328125q-0.296875 -1.265625 -1.046875 -1.890625q-0.734375 -0.640625 -1.796875 -0.640625q-1.59375 0 -2.59375 1.15625q-0.984375 1.140625 -0.984375 3.609375q0 2.5 0.953125 3.640625q0.96875 1.140625 2.515625 1.140625q1.234375 0 2.0625 -0.765625q0.84375 -0.765625 1.0625 -2.34375zm12.0 0l2.078125 0.265625q-0.34375 2.15625 -1.75 3.375q-1.390625 1.203125 -3.4375 1.203125q-2.546875 0 -4.109375 -1.671875q-1.546875 -1.671875 -1.546875 -4.78125q0 -2.015625 0.671875 -3.53125q0.671875 -1.515625 2.03125 -2.265625q1.359375 -0.765625 2.96875 -0.765625q2.03125 0 3.3125 1.03125q1.296875 1.03125 1.65625 2.90625l-2.046875 0.328125q-0.296875 -1.265625 -1.046875 -1.890625q-0.734375 -0.640625 -1.796875 -0.640625q-1.59375 0 -2.59375 1.15625q-0.984375 1.140625 -0.984375 3.609375q0 2.5 0.953125 3.640625q0.96875 1.140625 2.515625 1.140625q1.234375 0 2.0625 -0.765625q0.84375 -0.765625 1.0625 -2.34375z" fill-rule="nonzero"/><path fill="#ffffff" d="m778.8768 322.66467q0 0.21875 -0.03125 0.390625q-0.03125 0.15625 -0.078125 0.265625q-0.046875 0.109375 -0.140625 0.171875q-0.09375 0.046875 -0.1875 0.046875l-8.390625 0q-0.15625 0 -0.28125 -0.03125q-0.125 -0.046875 -0.21875 -0.140625q-0.078125 -0.09375 -0.125 -0.265625q-0.03125 -0.1875 -0.03125 -0.4375q0 -0.234375 0.015625 -0.40625q0.015625 -0.1875 0.0625 -0.3125q0.0625 -0.140625 0.15625 -0.265625q0.09375 -0.140625 0.234375 -0.296875l2.9375 -3.125q1.015625 -1.078125 1.625 -1.921875q0.625 -0.859375 0.953125 -1.5625q0.34375 -0.703125 0.4375 -1.28125q0.109375 -0.578125 0.109375 -1.078125q0 -0.5 -0.171875 -0.953125q-0.15625 -0.453125 -0.46875 -0.78125q-0.3125 -0.34375 -0.78125 -0.546875q-0.46875 -0.203125 -1.078125 -0.203125q-0.703125 0 -1.28125 0.203125q-0.5625 0.203125 -1.0 0.4375q-0.421875 0.234375 -0.71875 0.4375q-0.28125 0.1875 -0.421875 0.1875q-0.078125 0 -0.140625 -0.046875q-0.0625 -0.046875 -0.109375 -0.140625q-0.03125 -0.109375 -0.0625 -0.28125q-0.015625 -0.1875 -0.015625 -0.4375q0 -0.171875 0 -0.296875q0.015625 -0.125 0.046875 -0.21875q0.03125 -0.09375 0.078125 -0.171875q0.046875 -0.09375 0.1875 -0.21875q0.140625 -0.125 0.484375 -0.328125q0.34375 -0.21875 0.859375 -0.421875q0.53125 -0.203125 1.15625 -0.34375q0.625 -0.140625 1.3125 -0.140625q1.109375 0 1.9375 0.3125q0.828125 0.3125 1.359375 0.859375q0.546875 0.53125 0.8125 1.25q0.28125 0.703125 0.28125 1.515625q0 0.734375 -0.140625 1.453125q-0.125 0.71875 -0.546875 1.5625q-0.40625 0.828125 -1.1875 1.859375q-0.78125 1.015625 -2.09375 2.359375l-2.390625 2.5l6.59375 0q0.09375 0 0.171875 0.0625q0.09375 0.046875 0.15625 0.15625q0.0625 0.109375 0.09375 0.265625q0.03125 0.15625 0.03125 0.359375z" fill-rule="nonzero"/><path fill="#9bbb59" d="m119.997475 164.99864l172.50122 0l0 37.50026l-172.50122 0z" fill-rule="evenodd"/><path stroke="#718840" stroke-width="2.6666666666666665" stroke-linejoin="round" stroke-linecap="butt" d="m119.997475 164.99864l172.50122 0l0 37.50026l-172.50122 0z" fill-rule="evenodd"/><path fill="#ffffff" d="m164.05472 192.28877l0 -17.1875l3.421875 0l4.0625 12.171875q0.5625 1.703125 0.828125 2.546875q0.296875 -0.9375 0.90625 -2.765625l4.125 -11.953125l3.046875 0l0 17.1875l-2.1875 0l0 -14.375l-4.984375 14.375l-2.0625 0l-4.96875 -14.625l0 14.625l-2.1875 0zm28.589844 -4.015625l2.171875 0.28125q-0.515625 1.90625 -1.90625 2.96875q-1.390625 1.046875 -3.5625 1.046875q-2.734375 0 -4.34375 -1.671875q-1.59375 -1.6875 -1.59375 -4.734375q0 -3.140625 1.609375 -4.875q1.625 -1.734375 4.203125 -1.734375q2.5 0 4.078125 1.703125q1.59375 1.703125 1.59375 4.78125q0 0.1875 -0.015625 0.5625l-9.28125 0q0.109375 2.046875 1.15625 3.140625q1.046875 1.09375 2.609375 1.09375q1.15625 0 1.96875 -0.609375q0.828125 -0.609375 1.3125 -1.953125zm-6.9375 -3.40625l6.953125 0q-0.140625 -1.5625 -0.796875 -2.359375q-1.0 -1.21875 -2.609375 -1.21875q-1.453125 0 -2.453125 0.984375q-0.984375 0.96875 -1.09375 2.59375zm9.832031 -5.03125l10.109375 0l0 1.75l-4.015625 0l0 10.703125l-2.09375 0l0 -10.703125l-4.0 0l0 -1.75zm11.066406 6.234375q0 -3.46875 1.921875 -5.125q1.609375 -1.390625 3.921875 -1.390625q2.5625 0 4.1875 1.6875q1.625 1.6875 1.625 4.640625q0 2.40625 -0.71875 3.78125q-0.71875 1.375 -2.09375 2.140625q-1.375 0.765625 -3.0 0.765625q-2.625 0 -4.234375 -1.671875q-1.609375 -1.6875 -1.609375 -4.828125zm2.171875 0q0 2.390625 1.03125 3.578125q1.046875 1.1875 2.640625 1.1875q1.5625 0 2.609375 -1.1875q1.046875 -1.203125 1.046875 -3.65625q0 -2.3125 -1.0625 -3.5q-1.046875 -1.1875 -2.59375 -1.1875q-1.59375 0 -2.640625 1.1875q-1.03125 1.1875 -1.03125 3.578125zm13.1015625 -6.234375l8.671875 0l0 10.71875l1.34375 0l0 5.265625l-1.734375 0l0 -3.53125l-9.796875 0l0 3.53125l-1.734375 0l0 -5.265625l1.109375 0q2.234375 -3.03125 2.140625 -10.71875zm1.75 1.75q-0.234375 6.0625 -1.875 8.96875l6.703125 0l0 -8.96875l-4.828125 0z" fill-rule="nonzero"/><path fill="#ffffff" d="m248.91801 191.4919q0 0.21875 -0.03125 0.375q-0.03125 0.15625 -0.09375 0.25q-0.0625 0.09375 -0.140625 0.140625q-0.0625 0.03125 -0.15625 0.03125l-7.9218903 0q-0.078125 0 -0.15625 -0.03125q-0.0625 -0.046875 -0.125 -0.140625q-0.0625 -0.09375 -0.109375 -0.25q-0.03125 -0.15625 -0.03125 -0.375q0 -0.21875 0.03125 -0.359375q0.046875 -0.15625 0.09375 -0.25q0.0625 -0.109375 0.125 -0.15625q0.078125 -0.0625 0.171875 -0.0625l3.171875 0l0 -11.53125l-2.9375 1.75q-0.21875 0.125 -0.359375 0.15625q-0.125 0.015625 -0.21875 -0.0625q-0.078125 -0.078125 -0.109375 -0.25q-0.015625 -0.1875 -0.015625 -0.453125q0 -0.203125 0.015625 -0.34375q0.015625 -0.140625 0.046875 -0.234375q0.03125 -0.09375 0.09375 -0.15625q0.078125 -0.078125 0.171875 -0.140625l3.5 -2.234375q0.046875 -0.046875 0.109375 -0.0625q0.078125 -0.03125 0.171875 -0.046875q0.109375 -0.03125 0.25 -0.03125q0.140625 0 0.359375 0q0.28125 0 0.46875 0.03125q0.1875 0.015625 0.28125 0.0625q0.109375 0.03125 0.140625 0.09375q0.046875 0.0625 0.046875 0.140625l0 13.3125l2.7343903 0q0.09375 0 0.171875 0.0625q0.09375 0.046875 0.140625 0.15625q0.0625 0.09375 0.078125 0.25q0.03125 0.140625 0.03125 0.359375z" fill-rule="nonzero"/><path fill="#9bbb59" d="m119.997475 217.499l172.50122 0l0 37.50026l-172.50122 0z" fill-rule="evenodd"/><path stroke="#718840" stroke-width="2.6666666666666665" stroke-linejoin="round" stroke-linecap="butt" d="m119.997475 217.499l172.50122 0l0 37.50026l-172.50122 0z" fill-rule="evenodd"/><path fill="#ffffff" d="m164.05472 244.78912l0 -17.1875l3.421875 0l4.0625 12.171875q0.5625 1.703125 0.828125 2.546875q0.296875 -0.9375 0.90625 -2.765625l4.125 -11.953125l3.046875 0l0 17.1875l-2.1875 0l0 -14.375l-4.984375 14.375l-2.0625 0l-4.96875 -14.625l0 14.625l-2.1875 0zm28.589844 -4.015625l2.171875 0.28125q-0.515625 1.90625 -1.90625 2.96875q-1.390625 1.046875 -3.5625 1.046875q-2.734375 0 -4.34375 -1.671875q-1.59375 -1.6875 -1.59375 -4.734375q0 -3.140625 1.609375 -4.875q1.625 -1.734375 4.203125 -1.734375q2.5 0 4.078125 1.703125q1.59375 1.703125 1.59375 4.78125q0 0.1875 -0.015625 0.5625l-9.28125 0q0.109375 2.046875 1.15625 3.140625q1.046875 1.09375 2.609375 1.09375q1.15625 0 1.96875 -0.609375q0.828125 -0.609375 1.3125 -1.953125zm-6.9375 -3.40625l6.953125 0q-0.140625 -1.5625 -0.796875 -2.359375q-1.0 -1.21875 -2.609375 -1.21875q-1.453125 0 -2.453125 0.984375q-0.984375 0.96875 -1.09375 2.59375zm9.832031 -5.03125l10.109375 0l0 1.75l-4.015625 0l0 10.703125l-2.09375 0l0 -10.703125l-4.0 0l0 -1.75zm11.066406 6.234375q0 -3.46875 1.921875 -5.125q1.609375 -1.390625 3.921875 -1.390625q2.5625 0 4.1875 1.6875q1.625 1.6875 1.625 4.640625q0 2.40625 -0.71875 3.78125q-0.71875 1.375 -2.09375 2.140625q-1.375 0.765625 -3.0 0.765625q-2.625 0 -4.234375 -1.671875q-1.609375 -1.6875 -1.609375 -4.828125zm2.171875 0q0 2.390625 1.03125 3.578125q1.046875 1.1875 2.640625 1.1875q1.5625 0 2.609375 -1.1875q1.046875 -1.203125 1.046875 -3.65625q0 -2.3125 -1.0625 -3.5q-1.046875 -1.1875 -2.59375 -1.1875q-1.59375 0 -2.640625 1.1875q-1.03125 1.1875 -1.03125 3.578125zm13.1015625 -6.234375l8.671875 0l0 10.71875l1.34375 0l0 5.265625l-1.734375 0l0 -3.53125l-9.796875 0l0 3.53125l-1.734375 0l0 -5.265625l1.109375 0q2.234375 -3.03125 2.140625 -10.71875zm1.75 1.75q-0.234375 6.0625 -1.875 8.96875l6.703125 0l0 -8.96875l-4.828125 0z" fill-rule="nonzero"/><path fill="#ffffff" d="m248.88676 243.91412q0 0.21875 -0.03125 0.390625q-0.03125 0.15625 -0.078125 0.265625q-0.046875 0.109375 -0.140625 0.171875q-0.09375 0.046875 -0.1875 0.046875l-8.39064 0q-0.15625 0 -0.28125 -0.03125q-0.125 -0.046875 -0.21875 -0.140625q-0.078125 -0.09375 -0.125 -0.265625q-0.03125 -0.1875 -0.03125 -0.4375q0 -0.234375 0.015625 -0.40625q0.015625 -0.1875 0.0625 -0.3125q0.0625 -0.140625 0.15625 -0.265625q0.09375 -0.140625 0.234375 -0.296875l2.9375 -3.125q1.015625 -1.078125 1.625 -1.921875q0.625 -0.859375 0.953125 -1.5625q0.34375 -0.703125 0.4375 -1.28125q0.109375 -0.578125 0.109375 -1.078125q0 -0.5 -0.171875 -0.953125q-0.15625 -0.453125 -0.46875 -0.78125q-0.3125 -0.34375 -0.78125 -0.546875q-0.46875 -0.203125 -1.078125 -0.203125q-0.703125 0 -1.28125 0.203125q-0.5625 0.203125 -1.0 0.4375q-0.421875 0.234375 -0.71875 0.4375q-0.28125 0.1875 -0.421875 0.1875q-0.078125 0 -0.140625 -0.046875q-0.0625 -0.046875 -0.109375 -0.140625q-0.03125 -0.109375 -0.0625 -0.28125q-0.015625 -0.1875 -0.015625 -0.4375q0 -0.171875 0 -0.296875q0.015625 -0.125 0.046875 -0.21875q0.03125 -0.09375 0.078125 -0.171875q0.046875 -0.09375 0.1875 -0.21875q0.140625 -0.125 0.484375 -0.328125q0.34375 -0.21875 0.859375 -0.421875q0.53125 -0.203125 1.15625 -0.34375q0.625 -0.140625 1.3125 -0.140625q1.109375 0 1.9375 0.3125q0.828125 0.3125 1.359375 0.859375q0.546875 0.53125 0.8125 1.25q0.28126526 0.703125 0.28126526 1.515625q0 0.734375 -0.140625 1.453125q-0.12501526 0.71875 -0.54689026 1.5625q-0.40625 0.828125 -1.1875 1.859375q-0.78125 1.015625 -2.09375 2.359375l-2.390625 2.5l6.5937653 0q0.09375 0 0.171875 0.0625q0.09375 0.046875 0.15625 0.15625q0.0625 0.109375 0.09375 0.265625q0.03125 0.15625 0.03125 0.359375z" fill-rule="nonzero"/><path fill="#9bbb59" d="m119.997475 269.99936l172.50122 0l0 37.500275l-172.50122 0z" fill-rule="evenodd"/><path stroke="#718840" stroke-width="2.6666666666666665" stroke-linejoin="round" stroke-linecap="butt" d="m119.997475 269.99936l172.50122 0l0 37.500275l-172.50122 0z" fill-rule="evenodd"/><path fill="#ffffff" d="m164.05472 297.2895l0 -17.1875l3.421875 0l4.0625 12.171875q0.5625 1.703125 0.828125 2.546875q0.296875 -0.9375 0.90625 -2.765625l4.125 -11.953125l3.046875 0l0 17.1875l-2.1875 0l0 -14.375l-4.984375 14.375l-2.0625 0l-4.96875 -14.625l0 14.625l-2.1875 0zm28.589844 -4.015625l2.171875 0.28125q-0.515625 1.90625 -1.90625 2.96875q-1.390625 1.046875 -3.5625 1.046875q-2.734375 0 -4.34375 -1.671875q-1.59375 -1.6875 -1.59375 -4.734375q0 -3.140625 1.609375 -4.875q1.625 -1.734375 4.203125 -1.734375q2.5 0 4.078125 1.703125q1.59375 1.703125 1.59375 4.78125q0 0.1875 -0.015625 0.5625l-9.28125 0q0.109375 2.046875 1.15625 3.140625q1.046875 1.09375 2.609375 1.09375q1.15625 0 1.96875 -0.609375q0.828125 -0.609375 1.3125 -1.953125zm-6.9375 -3.40625l6.953125 0q-0.140625 -1.5625 -0.796875 -2.359375q-1.0 -1.21875 -2.609375 -1.21875q-1.453125 0 -2.453125 0.984375q-0.984375 0.96875 -1.09375 2.59375zm9.832031 -5.03125l10.109375 0l0 1.75l-4.015625 0l0 10.703125l-2.09375 0l0 -10.703125l-4.0 0l0 -1.75zm11.066406 6.234375q0 -3.46875 1.921875 -5.125q1.609375 -1.390625 3.921875 -1.390625q2.5625 0 4.1875 1.6875q1.625 1.6875 1.625 4.640625q0 2.40625 -0.71875 3.78125q-0.71875 1.375 -2.09375 2.140625q-1.375 0.765625 -3.0 0.765625q-2.625 0 -4.234375 -1.671875q-1.609375 -1.6875 -1.609375 -4.828125zm2.171875 0q0 2.390625 1.03125 3.578125q1.046875 1.1875 2.640625 1.1875q1.5625 0 2.609375 -1.1875q1.046875 -1.203125 1.046875 -3.65625q0 -2.3125 -1.0625 -3.5q-1.046875 -1.1875 -2.59375 -1.1875q-1.59375 0 -2.640625 1.1875q-1.03125 1.1875 -1.03125 3.578125zm13.1015625 -6.234375l8.671875 0l0 10.71875l1.34375 0l0 5.265625l-1.734375 0l0 -3.53125l-9.796875 0l0 3.53125l-1.734375 0l0 -5.265625l1.109375 0q2.234375 -3.03125 2.140625 -10.71875zm1.75 1.75q-0.234375 6.0625 -1.875 8.96875l6.703125 0l0 -8.96875l-4.828125 0z" fill-rule="nonzero"/><path fill="#ffffff" d="m248.77739 292.94574q0 1.046875 -0.375 1.890625q-0.359375 0.828125 -1.0468903 1.4375q-0.671875 0.59375 -1.671875 0.921875q-0.984375 0.3125 -2.25 0.3125q-0.75 0 -1.421875 -0.125q-0.65625 -0.125 -1.171875 -0.28125q-0.515625 -0.171875 -0.859375 -0.359375q-0.34375 -0.1875 -0.4375 -0.265625q-0.078125 -0.078125 -0.125 -0.15625q-0.046875 -0.09375 -0.078125 -0.203125q-0.03125 -0.125 -0.0625 -0.28125q-0.015625 -0.171875 -0.015625 -0.421875q0 -0.421875 0.078125 -0.578125q0.09375 -0.171875 0.25 -0.171875q0.09375 0 0.40625 0.1875q0.3125 0.1875 0.796875 0.40625q0.484375 0.21875 1.140625 0.40625q0.65625 0.1875 1.453125 0.1875q0.765625 0 1.34375 -0.203125q0.59375 -0.203125 0.984375 -0.5625q0.40625 -0.359375 0.609375 -0.859375q0.203125 -0.5 0.203125 -1.09375q0 -0.640625 -0.265625 -1.15625q-0.25 -0.515625 -0.734375 -0.890625q-0.484375 -0.375 -1.203125 -0.5625q-0.703125 -0.203125 -1.59375 -0.203125l-1.453125 0q-0.09375 0 -0.1875 -0.046875q-0.078125 -0.046875 -0.140625 -0.140625q-0.0625 -0.09375 -0.109375 -0.234375q-0.03125 -0.15625 -0.03125 -0.40625q0 -0.21875 0.03125 -0.359375q0.03125 -0.15625 0.09375 -0.234375q0.0625 -0.09375 0.140625 -0.125q0.09375 -0.046875 0.203125 -0.046875l1.3125 0q0.78125 0 1.390625 -0.203125q0.625 -0.203125 1.046875 -0.578125q0.421875 -0.375 0.65625 -0.890625q0.234375 -0.53125 0.234375 -1.171875q0 -0.46875 -0.15625 -0.890625q-0.15625 -0.4375 -0.46875 -0.75q-0.296875 -0.3125 -0.78125 -0.484375q-0.46875 -0.1875 -1.078125 -0.1875q-0.6875 0 -1.265625 0.203125q-0.5625 0.203125 -1.015625 0.4375q-0.4375 0.234375 -0.734375 0.4375q-0.28125 0.203125 -0.40625 0.203125q-0.078125 0 -0.140625 -0.03125q-0.0625 -0.03125 -0.109375 -0.109375q-0.03125 -0.09375 -0.0625 -0.25q-0.015625 -0.15625 -0.015625 -0.421875q0 -0.171875 0.015625 -0.296875q0.015625 -0.140625 0.046875 -0.234375q0.03125 -0.109375 0.078125 -0.1875q0.046875 -0.078125 0.15625 -0.1875q0.125 -0.125 0.453125 -0.328125q0.34375 -0.21875 0.84375 -0.421875q0.5 -0.203125 1.140625 -0.34375q0.65625 -0.140625 1.40625 -0.140625q1.0625 0 1.859375 0.28125q0.796875 0.265625 1.328125 0.765625q0.53125 0.484375 0.796875 1.171875q0.26564026 0.671875 0.26564026 1.515625q0 0.703125 -0.18751526 1.328125q-0.1875 0.609375 -0.5625 1.09375q-0.359375 0.46875 -0.890625 0.8125q-0.515625 0.328125 -1.21875 0.453125l0 0.015625q0.796875 0.09375 1.4375 0.40625q0.65625 0.296875 1.125 0.765625q0.46876526 0.46875 0.73439026 1.109375q0.265625 0.625 0.265625 1.328125z" fill-rule="nonzero"/></g></svg>